<svg width="787" height="531" viewBox="0 0 787 531" fill="none" xmlns="http://www.w3.org/2000/svg">
<path d="M418.158 368.244C485.898 364.808 547.959 363.251 557.965 368.86C563.119 371.758 571.138 409.845 574.822 435.317C595.629 432.833 621.776 430.548 647.899 428.768C644.02 409.17 641.627 396.891 632.825 377.956C631.492 375.087 635.144 373.928 636.63 376.548C645.449 392.693 651.371 410.257 654.129 428.445C689.496 426.123 724.391 424.719 746.261 424.719C743.778 403.316 730.021 353.994 705.36 328.704C686.35 309.209 649.472 291.859 616.833 287.753C616.325 292.276 614.58 296.572 611.79 300.168C609.001 303.765 605.274 306.524 601.019 308.141C583.582 314.993 551.755 316.794 523.364 301.199C493.412 309.743 438.522 342.341 418.158 368.244Z" fill="#9B9B9B"/>
<path d="M783.284 520.582C604.679 523.939 426.88 523.277 248.37 523.48C244.76 523.48 243.945 529.122 247.679 529.188C425.788 532.48 606.02 528.605 784.1 526.423C787.904 526.39 787.068 520.511 783.284 520.582Z" fill="#9B9B9B"/>
<path d="M343.52 167.689C361.856 168.032 451.215 166.368 460.715 165.958C463.58 165.834 463.506 160.891 460.715 160.891C447.961 160.891 364.046 162.51 343.52 163.586C343.024 163.653 342.569 163.898 342.239 164.275C341.909 164.652 341.728 165.136 341.728 165.637C341.728 166.138 341.909 166.622 342.239 167C342.569 167.377 343.024 167.622 343.52 167.689Z" fill="#009688"/>
<path d="M275.572 108.269C274.239 108.965 251.184 136.677 261.807 133.382C263.314 132.914 278.366 113.842 279.107 110.422C279.196 109.979 279.147 109.519 278.965 109.105C278.784 108.691 278.479 108.343 278.093 108.108C277.707 107.873 277.258 107.762 276.807 107.791C276.356 107.82 275.925 107.987 275.572 108.269Z" fill="#009688"/>
<path d="M220.095 81.8448C227.51 82.1925 378.486 81.8158 387.486 80.9298C388.764 80.7604 389.934 80.1225 390.768 79.1399C391.603 78.1572 392.043 76.8997 392.003 75.611C391.963 74.3223 391.447 73.0943 390.553 72.1648C389.66 71.2354 388.453 70.6707 387.167 70.5802C345.152 71.1019 257.809 71.3171 220.331 72.1368C214.709 72.2651 214.237 81.5798 220.095 81.8448Z" fill="#009688"/>
<path d="M431.43 241.163C421.714 241.163 347.838 240.335 342.606 241.829C340.825 242.343 340.122 245.224 342.258 245.832C347.838 247.435 421.329 246.623 431.476 246.623C441.622 246.623 451.471 246.987 461.407 246.623C464.445 246.511 464.222 241.419 461.208 241.287C451.322 240.848 441.337 241.163 431.43 241.163Z" fill="#009688"/>
<path d="M341.442 279.841C340.815 280.028 340.287 280.454 339.972 281.028C339.657 281.601 339.582 282.276 339.762 282.905C340.614 285.803 336.785 284.809 462.69 286.908C463.385 286.837 464.029 286.511 464.497 285.993C464.965 285.475 465.224 284.802 465.224 284.103C465.224 283.405 464.965 282.732 464.497 282.213C464.029 281.695 463.385 281.369 462.69 281.299C341.906 279.349 349.403 279.224 341.442 279.841Z" fill="#009688"/>
<path d="M459.999 208.069C460.673 208.024 461.306 207.729 461.774 207.244C462.243 206.758 462.514 206.115 462.536 205.44C462.557 204.765 462.326 204.107 461.889 203.593C461.451 203.079 460.838 202.745 460.169 202.658C442.202 202.161 358.594 201.466 343.425 204.488C340.941 204.98 341.496 208.599 343.868 208.81C356.698 209.965 376.312 205.655 459.999 208.069Z" fill="#009688"/>
<path d="M570.421 134.52C570.645 98.8596 572.301 54.3728 569.308 19.7719C569.226 19.2524 568.954 18.7817 568.545 18.4507C568.136 18.1197 567.619 17.952 567.094 17.9797C566.568 18.0075 566.072 18.2289 565.7 18.6012C565.329 18.9734 565.108 19.4701 565.081 19.9955C564.108 36.5963 565.023 113.73 565.081 134.918C565.089 138.399 570.401 138.006 570.421 134.52Z" fill="#222222"/>
<path d="M258.507 322.336C263.637 327.956 269.092 333.271 274.843 338.254C277.327 340.593 281.152 336.863 278.651 334.528C273.291 329.135 267.656 324.023 261.769 319.211C259.976 318.064 257.124 320.411 258.507 322.336Z" fill="#009688"/>
<path d="M28.5651 19.7719C28.5651 16.6588 23.6635 16.0916 23.6221 19.2793C21.991 151.158 24.1685 304.552 30.4694 435.748C30.6433 439.383 36.2652 438.493 36.0789 434.883C29.422 296.103 28.3746 158.668 28.5651 19.7719Z" fill="#222222"/>
<path d="M91.3397 336.648C89.9487 338.718 93.1737 341.35 94.8006 339.417C96.8995 336.933 109.071 322.829 108.462 319.794C106.786 311.755 93.716 333.133 91.3397 336.648Z" fill="#009688"/>
<path d="M253.239 432.49C230.995 431.248 49.8646 432.221 42.7979 433.318C42.2753 433.487 41.8233 433.824 41.5126 434.277C41.202 434.729 41.0502 435.272 41.0809 435.821C41.1117 436.369 41.3233 436.892 41.6826 437.307C42.0419 437.722 42.5288 438.007 43.0669 438.116C111.552 438.311 184.236 437.768 252.841 437.843C256.178 437.843 256.749 432.697 253.239 432.49Z" fill="#222222"/>
<path d="M104.807 139.633C107.258 142.369 111.017 138.942 108.98 136.619C104.037 131.01 93.4477 118.271 88.5668 113.982C86.6335 112.281 84.013 114.943 85.3791 116.971C88.8897 122.208 99.9679 134.235 104.807 139.633Z" fill="#009688"/>
<path d="M184.495 115.278C184.806 104.533 184.17 93.7821 182.595 83.1488C182.377 82.7664 182.053 82.4554 181.661 82.2535C181.27 82.0516 180.829 81.9675 180.391 82.0113C179.953 82.0551 179.537 82.225 179.193 82.5004C178.85 82.7757 178.593 83.1448 178.455 83.5628C178.12 94.2956 178.641 105.038 180.012 115.688C180.137 116.222 180.45 116.693 180.895 117.014C181.34 117.335 181.886 117.484 182.432 117.434C182.978 117.384 183.488 117.139 183.867 116.742C184.246 116.346 184.469 115.826 184.495 115.278Z" fill="#009688"/>
<path d="M183.377 334.694C183.377 338.13 182.462 360.94 183.696 363.933C183.914 364.311 184.227 364.624 184.605 364.842C184.982 365.06 185.41 365.174 185.846 365.174C186.282 365.174 186.71 365.06 187.088 364.842C187.465 364.624 187.779 364.311 187.997 363.933C189.284 360.646 187.823 339.218 187.653 334.694C187.43 332.272 183.377 332.222 183.377 334.694Z" fill="#009688"/>
<path fill-rule="evenodd" clip-rule="evenodd" d="M537.576 141.218C524.626 143.702 513.205 171.99 527.491 185.233C536.239 193.343 576.524 193.687 600.944 192.648C601.12 195.637 601.761 198.58 602.845 201.37C603.818 203.854 606.732 204.641 606.008 200.162C605.612 197.61 605.43 195.031 605.465 192.449C610.408 192.205 614.312 191.907 616.833 191.621C616.175 197.137 615.227 202.615 613.993 208.031C613.31 211 616.643 211.554 617.773 208.723C621.239 199.767 622.641 190.145 621.876 180.572C620.402 159.471 561.231 136.673 537.576 141.218ZM541.654 152.363C535.696 153.725 534.289 162.775 533.747 167.614C532.815 175.894 527.537 170.098 528.804 162.816C529.772 157.327 534.463 148.385 541.306 149.275C541.702 149.253 542.092 149.384 542.395 149.641C542.698 149.898 542.892 150.26 542.936 150.655C542.981 151.049 542.872 151.446 542.634 151.764C542.396 152.081 542.045 152.296 541.654 152.363Z" fill="#333333"/>
<path fill-rule="evenodd" clip-rule="evenodd" d="M585.991 226.408C589.291 220.82 591.56 214.683 592.69 208.292C598.251 209.3 603.553 211.411 608.285 214.502C611.1 215.715 612.168 212.018 610.768 210.871C605.687 206.731 599.477 204.216 592.946 203.656C589.933 197.947 567.023 196.618 563.487 202.641C562.622 202.156 561.664 201.859 560.676 201.77C559.688 201.68 558.692 201.801 557.754 202.124C555.953 197.181 535.634 195.943 530.571 201.652C524.738 201.01 522.316 206.396 530.025 206.347C530.31 211.697 531.3 216.986 532.968 222.078C534.964 226.16 549.312 226.098 552.169 224.032C555.568 221.577 557.112 210.859 558.076 206.732C559.476 206.292 560.989 206.38 562.328 206.98C562.298 212.513 562.927 218.031 564.203 223.415C566.398 227.779 582.808 230.167 585.991 226.408ZM550.6 219.288C549.925 220.915 549.317 221.304 543.877 221.089C534.686 220.728 536.611 222.72 533.796 204.21C540.27 202.012 547.289 202.012 553.763 204.21C553.674 209.391 552.601 214.508 550.6 219.288ZM567.9 221.163C566.875 216.074 566.509 210.875 566.812 205.692C573.911 203.158 581.705 203.396 588.637 206.359C588.249 210.43 587.204 214.412 585.544 218.149C583.193 223.295 582.804 223.97 575.389 223.366C571.829 223.076 568.401 222.285 567.9 221.167V221.163Z" fill="#191919"/>
<path fill-rule="evenodd" clip-rule="evenodd" d="M571.411 217.855C572.185 220.646 577.621 220.973 576.354 212.912C575.629 208.325 569.163 209.766 571.411 217.855Z" fill="#191919"/>
<path fill-rule="evenodd" clip-rule="evenodd" d="M618.365 214.519C604.182 215.707 597.181 241.688 589.647 244.177C584.381 245.919 572.57 238.343 560.635 237.528C548.7 236.712 541.902 241.755 539.675 240.691C537.448 239.627 538.983 230.312 538.983 228.139C538.983 225.965 537.799 224.777 535.696 229.571C533.593 234.365 513.085 280.384 522.006 292.766C534.757 310.46 586.79 314.206 602.944 302.035C623.196 286.776 605.962 237.768 610.951 225.001C611.889 223.176 613.384 221.698 615.221 220.782C617.057 219.866 619.137 219.56 621.159 219.909C627.982 222.865 626.107 243.092 615.202 239.925C612.462 239.134 611.841 242.579 614.374 243.907C621.78 247.803 629.05 241.73 630.019 231.55C630.743 223.842 628.127 213.703 618.365 214.519ZM561.893 260.471C551.614 260.471 549.536 256.393 548.671 249.707C557.568 251.62 566.787 251.46 575.613 249.24C574.673 255.35 573.369 260.488 561.893 260.488V260.471Z" fill="#333333"/>
<path fill-rule="evenodd" clip-rule="evenodd" d="M556.975 217.04C555.072 221.428 553.647 226.008 552.724 230.701C551.701 236.269 559.107 236.286 563.28 235.644C565.764 235.263 566.219 232.432 563.5 232.233C561.5 232.084 557.571 231.985 557.199 231.293C557.541 226.674 558.429 222.112 559.844 217.702C560.42 215.881 557.762 215.169 556.975 217.04Z" fill="#191919"/>
<path fill-rule="evenodd" clip-rule="evenodd" d="M545.218 218.046C547.52 217.168 547.702 210.971 545.736 209.816C540.772 206.868 540.08 219.983 545.218 218.046Z" fill="#191919"/>
<path fill-rule="evenodd" clip-rule="evenodd" d="M585.718 0C394.258 0.149035 191.008 -0.293924 2.46328 1.31234C-0.749237 1.33718 -0.823753 9.59202 2.26457 9.61272C193.132 10.8091 394.159 9.3188 585.519 9.16976C588.956 9.16562 589.03 0 585.718 0Z" fill="#222222"/>
<path fill-rule="evenodd" clip-rule="evenodd" d="M367.59 440.703C334.885 438.758 284.225 432.357 253.707 419.255C249.782 417.566 230.395 420.733 208.383 410.561C206.082 409.501 205.167 412.743 207.32 414.072C218.567 421.002 232.775 422.848 245.75 423.266C249.237 423.176 252.692 423.949 255.81 425.514C291.769 438.411 329.638 445.177 367.838 445.53C370.976 445.576 370.877 440.902 367.59 440.703Z" fill="#222222"/>
<path fill-rule="evenodd" clip-rule="evenodd" d="M739.418 431.314C738.781 427.828 734.082 429.058 734.67 432.523C736.693 444.961 735.89 457.696 732.323 469.782C723.873 499.228 699.009 494.505 674.12 493.358C647.998 492.158 612.023 489.653 589.452 488.614C588.954 488.548 588.449 488.679 588.046 488.979C587.643 489.28 587.373 489.725 587.294 490.222C587.214 490.718 587.332 491.226 587.621 491.637C587.911 492.048 588.35 492.33 588.844 492.422C610.557 495.871 656.94 497.912 675.011 498.769C699.725 499.945 727.297 503.24 736.5 474.625C741.028 460.65 742.03 445.771 739.418 431.314Z" fill="#222222"/>
<path fill-rule="evenodd" clip-rule="evenodd" d="M577.414 446.069C609.398 440.982 641.618 437.51 673.951 435.665C674.473 435.618 674.957 435.371 675.302 434.975C675.646 434.579 675.824 434.065 675.798 433.541C675.773 433.017 675.546 432.523 675.164 432.163C674.783 431.803 674.277 431.604 673.752 431.608C641.198 432.944 608.754 436.245 576.598 441.494C575.992 441.604 575.453 441.95 575.102 442.457C574.751 442.963 574.615 443.589 574.725 444.195C574.835 444.802 575.181 445.34 575.687 445.691C576.194 446.043 576.819 446.178 577.426 446.069H577.414Z" fill="#222222"/>
<path fill-rule="evenodd" clip-rule="evenodd" d="M236.903 410.259C237.247 410.256 237.588 410.185 237.904 410.048C238.22 409.911 238.505 409.711 238.742 409.462C238.979 409.212 239.164 408.917 239.284 408.595C239.405 408.272 239.459 407.929 239.444 407.585C239.429 407.241 239.345 406.903 239.197 406.592C239.048 406.282 238.839 406.004 238.581 405.776C238.323 405.548 238.021 405.374 237.695 405.265C237.368 405.156 237.023 405.115 236.679 405.142C221.312 405.635 213.558 401.271 203.416 394.068C201.809 392.93 200.104 394.937 201.346 396.552C208.566 406.094 225.411 410.706 236.903 410.259Z" fill="#222222"/>
<path fill-rule="evenodd" clip-rule="evenodd" d="M262.466 384.054C264.338 387.299 268.262 387.738 271.756 388.529C292.393 393.219 339.617 391.654 361.521 391.398C364.634 391.361 364.004 387.337 360.804 387.366C344.812 387.527 296.546 387.982 272.597 383.561C268.175 382.733 268.403 383.387 266.147 379.835C261.883 373.104 255.524 364.87 247.811 364.733C245.51 364.692 245.327 366.911 247.29 367.896C254.103 371.314 259.482 377.04 262.466 384.054Z" fill="#222222"/>
<path fill-rule="evenodd" clip-rule="evenodd" d="M248.805 384.973C238.116 381.835 223.01 376.801 214.701 366.066C212.217 362.845 210.106 365.35 211.339 367.946C216.514 378.842 235.458 388.645 246.333 389.059C252.349 389.311 250.676 385.519 248.805 384.973Z" fill="#222222"/>
<path fill-rule="evenodd" clip-rule="evenodd" d="M205.515 376.523C205.173 376.108 204.686 375.839 204.152 375.772C203.619 375.705 203.08 375.845 202.646 376.163C202.212 376.481 201.917 376.953 201.821 377.482C201.725 378.011 201.834 378.557 202.128 379.007C206.074 384.669 211.199 389.409 217.15 392.903C223.101 396.396 229.738 398.561 236.605 399.247C237.146 399.266 237.678 399.107 238.121 398.796C238.563 398.485 238.892 398.037 239.057 397.522C239.222 397.006 239.214 396.451 239.034 395.94C238.855 395.43 238.513 394.992 238.062 394.693C234.431 393.128 218.998 392.122 205.515 376.523Z" fill="#222222"/>
<path fill-rule="evenodd" clip-rule="evenodd" d="M682.106 503.182C674.692 502.217 588.686 504.122 584.704 502.491C580.721 500.86 560.121 383.54 554.74 375.832C549.358 368.124 379.835 373.013 372.127 377.463C364.418 381.913 389.874 515.92 396.469 518.632C402.352 521.045 673.268 517.692 682.119 517.224C690.97 516.756 689.521 504.147 682.106 503.182ZM468.523 464.628C445.394 466.553 438.145 428.611 461.258 424.839C472.228 423.047 481.895 432.776 483.944 444.756C484.37 447.091 484.299 449.49 483.736 451.796C483.172 454.101 482.129 456.262 480.673 458.137C479.218 460.012 477.384 461.56 475.29 462.678C473.197 463.796 470.891 464.461 468.523 464.628Z" fill="#222222"/>
<path fill-rule="evenodd" clip-rule="evenodd" d="M136.026 247.896C133.878 250.584 131.936 253.289 130.391 256.05C127.159 261.825 123.668 267.631 123.218 274.3C126.322 269.252 130.447 264.656 135.603 260.547C135.618 258.204 136.343 256.304 136.966 254.136C138.479 249.088 140.77 244.385 142.845 240.001C140.367 242.272 138.211 245.128 136.026 247.896ZM160.537 267.321C160.106 266.639 159.614 266.151 159.201 265.431C158.31 265.84 158.361 267.208 158.237 268.204C158.059 269.592 157.646 270.899 158.282 272.382C159.098 270.716 159.667 268.939 160.537 267.321ZM162.397 269.348C161.277 270.927 160.526 272.67 159.948 274.517C160.457 275.135 160.992 275.741 161.451 276.579C162.25 274.784 162.887 272.915 164.106 271.332C163.593 270.614 162.969 270.041 162.397 269.348ZM153.078 250.355C152.648 250.383 152.438 249.923 152.113 249.778C152.019 250.422 151.438 250.847 151.349 251.49C152.628 251.034 153.755 250.973 154.92 250.832C155.334 249.793 155.795 248.262 155.883 247.347C155.123 248.452 154.868 249.734 153.078 250.355ZM141.323 251.381C140.578 253.054 139.704 254.742 139.159 256.408C138.992 256.946 138.705 257.697 138.936 257.948C139.82 257.336 140.62 256.691 141.708 256.173C143.864 247.596 147.908 239.884 152.689 232.502C147.198 237.857 144.23 244.85 141.323 251.381ZM157.413 229.468C153.683 236.857 149.235 244.487 146.306 252.106C146.135 252.546 145.711 253.113 146.009 253.539C146.68 253.08 147.583 252.701 148.525 252.338C149.496 247.636 151.837 243.418 154.102 239.269C156.385 235.074 159.184 231.09 162.377 227.329C162.435 227.305 162.484 227.252 162.419 227.176C160.55 227.859 159.038 228.677 157.413 229.468ZM170.016 286.116C173.723 282.631 176.844 278.861 180.206 275.372C186.963 268.378 192.491 260.471 196.188 251.945C196.307 251.9 196.221 251.763 196.055 251.86C192.391 254.214 190.094 256.957 187.89 260.036C184.169 265.323 179.51 270.732 175.214 275.493C169.063 282.218 163.893 289.38 157.946 295.926C162.465 292.975 166.343 289.591 170.016 286.116ZM209.781 290.449C206.314 292.691 202.304 295.211 198.364 296.759C196.597 301.768 194.572 306.538 191.341 310.993C188.128 315.407 183.588 319.009 178.708 322.777C179.91 322.385 180.639 323.052 181.622 322.879C183.388 322.539 185.776 321.181 187.574 320.222C189.577 319.183 191.397 318.281 193.087 317.394C196.947 315.372 199.714 313.059 202.344 310.832C205.082 308.527 207.624 305.893 209.408 303.314C210.905 301.217 211.943 298.991 213.105 296.989C213.503 296.261 214.361 295.594 214.059 295.066C210.824 297.392 207.567 299.486 203.647 301.701C202.806 302.161 200.388 303.797 199.863 302.78C199.296 301.747 201.892 300.311 203.047 299.529C206.16 297.32 208.374 295.86 211.6 293.945C212.789 293.252 215.245 292.073 216.089 291.275C217.374 290.037 218.208 285.42 219.001 284.135C216.265 286.266 213.057 288.31 209.781 290.449ZM210.866 282.689C207.485 284.9 203.354 288.245 199.608 288.362C199.581 289.793 199.313 291.115 199.286 292.546C206.575 288.971 213.254 285.122 219.646 281.145C219.709 279.633 220.056 278.248 219.833 276.609C217.321 278.79 214.227 280.518 210.866 282.689ZM235.504 245.755C235.764 246.874 235.433 248.219 236.099 249.25C236.304 248.9 236.591 248.588 236.959 248.31C235.051 246.776 236.849 244.766 237.244 243.769C236.766 244.46 236.052 245.071 235.504 245.755ZM240.158 231.958C238.649 234.025 236.855 235.965 236.449 238.523C238.308 236.49 239.638 234.22 241.457 232.169C240.914 232.343 240.663 231.865 240.158 231.958ZM198.326 222.769C203.375 224.553 209.8 224.896 216.103 221.832C221.958 219.011 225.599 214.568 228.03 209.711C230.326 205.107 231.328 198.461 229.045 192.604C227.22 188.026 224.719 184.856 221.888 182.154C215.777 185.889 209.993 189.866 204.798 194.229C200.405 197.944 195.422 201.718 191.333 205.522C190.833 205.984 189.662 206.637 190.336 207.597C194.326 204.237 198.557 200.447 203.389 197.173C206.903 194.775 210.574 191.911 214.384 189.84C215.808 189.056 217.401 188.005 218.806 188.141C212.083 193.632 205.011 198.749 199.204 204.429C196.867 206.715 194.801 209.266 191.945 211.176C192.677 212.55 193.525 213.613 194.372 214.676C194.968 214.109 195.353 213.353 195.937 212.756C201.717 206.749 209.425 200.643 217.565 195.928C218.735 195.276 220.166 194.152 221.422 194.345C219.705 196.392 217.501 197.881 215.457 199.513C213.379 201.156 211.265 202.88 209.275 204.659C205.349 208.094 202.257 212.123 198.707 215.651C198.247 216.133 197.714 216.505 197.139 216.86C198.223 217.832 199.441 218.449 200.779 218.849C205.046 213.388 211.228 207.192 218.252 203.007C219.126 202.469 220.576 201.305 221.653 202.174C221.288 203.161 220.254 203.727 219.47 204.332C213.514 209.09 208.548 214.31 204.533 219.811C206.953 219.863 208.719 219.965 211.211 219.142C217.425 217.165 220.773 212.224 222.632 208.163C223.982 205.24 225.067 201.103 223.991 196.711C223.857 196.187 222.414 193.22 223.769 192.7C225.137 192.208 225.538 194.663 225.833 196.138C226.79 201.186 226.23 205.021 224.961 208.587C223.317 213.21 219.607 218.087 213.741 220.708C207.018 223.731 201.285 223.256 196.695 220.994C192.738 219.059 189.068 215.494 187.492 209.535C186.872 209.773 186.837 210.293 186.329 210.555C188.723 217.588 193.315 221.003 198.326 222.769ZM249.507 217.44C239.403 221.351 232.829 229.794 231.22 237.417C233.695 230.375 241.959 223.516 252.378 221.48C252.803 221.352 252.966 221.864 253.334 221.857C256.009 221.507 256.507 220.337 257.479 218.811C258.003 217.968 258.502 217.067 258.657 216.33C256.052 215.535 252.83 216.131 249.507 217.44ZM266.285 162.576C265.263 163.002 264.446 163.079 263.461 163.423C265.412 167.006 268.077 168.929 270.773 170.836C270.855 169.721 271.248 168.726 271.177 167.568C268.102 168.545 264.005 165.72 266.285 162.576ZM268.396 164.642C270.735 165.709 272.038 163.111 273.63 162.059C273.461 161.617 273.301 161.202 273.143 160.789C271.42 162.028 269.358 163.09 268.396 164.642ZM269.451 128.335C269.497 128.451 269.531 128.541 269.576 128.66C264.031 136.168 257.022 142.681 250.819 150.14C249.241 152.03 247.649 153.521 245.292 155.136C244.65 155.583 243.936 156.367 243.044 155.898C242.434 154.134 244.282 152.951 245.237 151.908C248.422 148.486 252.251 145.325 255.591 141.945C260.096 137.374 264.817 132.923 269.201 128.566C269.268 128.472 269.306 128.391 269.451 128.335ZM247.459 280.082C247.546 280.216 247.439 280.293 247.483 280.41C243.404 285.562 239.365 290.735 235.013 295.789C230.724 300.75 226.578 305.996 221.927 310.893C217.342 315.699 212.799 320.793 208.299 325.733C206.155 328.081 203.8 330.406 201.415 333.183C200.615 334.097 199.628 335.49 198.029 336.884C197.192 337.61 194.53 339.851 193.423 338.281C192.31 336.711 194.093 334.741 194.766 333.669C195.767 332.134 196.742 331.151 197.909 329.958C204.858 322.758 212.077 315.825 219.322 308.781C224.171 304.044 228.599 299.095 233.172 294.431C235.486 292.087 237.913 289.769 240.152 287.317C242.442 284.816 244.443 282.186 247.119 280.076C247.256 279.99 247.33 280.098 247.459 280.082ZM224.569 250.766C224.656 250.732 224.678 250.79 224.73 250.838C224.765 250.927 224.865 250.922 224.899 251.01C224.905 251.111 224.854 251.162 224.888 251.251C220.755 255.375 216.541 260.006 211.049 263.769C209.923 264.541 205.811 267.404 205.09 266.056C204.623 265.187 206.258 264.153 206.738 263.734C209.08 261.819 212.219 260.209 214.734 258.297C216.379 257.021 217.828 255.688 219.47 254.414C221.036 253.203 222.908 251.47 224.569 250.766ZM206.521 256.032C206.514 254.512 208.157 253.679 209.249 252.821C212.719 250.136 216.914 247.137 220.926 244.718C222.571 245.474 219.935 247.771 218.942 248.626C216.311 250.853 213.738 252.35 210.873 254.227C209.494 255.13 208.029 256.604 206.521 256.032ZM241.91 299.74C242.067 299.713 242.153 299.849 242.312 299.823C242.409 299.987 242.293 300.032 242.318 300.192C238.622 305.638 234.132 310.778 230.03 316.311C226.993 320.387 223.626 324.048 219.138 327.699C218.368 328.334 215.344 330.95 214.332 329.544C213.255 328.061 215.953 326.011 216.649 325.27C222.491 319.239 227.757 312.683 233.911 306.768C235.072 305.646 236.491 304.493 237.864 303.22C239.073 302.048 240.399 300.388 241.91 299.74ZM163.38 197.402C163.476 197.567 163.328 197.624 163.375 197.743C154.751 208.597 145.449 219.104 136.73 230.335C132.466 235.796 127.873 241.112 123.706 246.737C120.75 250.682 117.346 255.033 114.026 259.082C112.899 260.461 111.908 262.026 110.766 263.108C109.798 264.02 106.958 266.498 105.643 264.837C104.548 263.396 106.266 261.078 107.232 259.896C108.57 258.265 110.036 257.06 111.204 255.869C113.907 253.037 116.358 250.166 118.577 247.489C132.662 230.578 148.144 214.044 163.089 197.616C163.155 197.523 163.232 197.46 163.38 197.402ZM158.038 322.792C155.319 325.494 151.797 329.012 147.044 330.735C145.556 331.273 141.941 332.254 141.305 330.772C140.57 329.124 143.538 327.243 144.578 326.164C146.698 323.931 148.262 321.13 149.345 318.312C145.963 322.722 141.99 326.382 138.396 331.042C137.678 331.995 136.247 335.319 134.644 335.02C132.828 334.7 132.985 328.584 133.028 327.723C133.261 322.861 135.216 318.523 138.194 314.911C139.739 313.031 141.955 311.572 142.588 309.164C139.384 309.987 137 311.443 134.808 312.962C132.643 314.469 130.921 316.415 128.63 317.498C128.313 316.232 129.583 315.137 130.577 314.111C132.912 311.728 137.375 307.578 141.985 306.62C143.083 306.402 144.673 306.842 145.123 307.921C145.661 309.236 144.75 311.007 144.15 311.914C143.211 313.256 141.958 314.312 140.927 315.42C137.029 319.723 134.409 325.059 135.12 331.589C137.533 328.53 140.619 325.724 143.175 322.508C144.364 320.935 145.835 319.389 146.983 317.798C148.133 316.205 148.985 314.019 151.1 313.444C152.534 314.449 152.084 316.449 151.771 317.755C150.835 321.837 148.372 325.826 145.351 328.88C150.384 326.745 154.758 323.679 157.693 319.338C159.456 316.7 160.818 313.198 162.4 310.088C163.015 308.87 165.101 306.108 166.33 308.07C166.976 309.142 166.312 311.023 165.977 311.828C164.527 315.194 161.562 318.395 159.884 321.61C168.755 318.273 169.217 311.802 169.434 304.613C169.486 303.512 169.215 302.362 169.41 301.373C169.738 299.759 171.392 296.925 173.214 296.563C173.385 296.564 173.507 296.62 173.623 296.746C173.656 296.834 173.68 296.895 173.702 296.953C173.166 298.376 171.618 299.985 171.379 301.835C171.108 303.767 171.519 306.079 171.567 308.228C171.593 310.147 171.244 312.412 170.714 314.207C169.846 317.146 165.949 321.28 161.921 322.86C160.516 323.433 158.877 323.925 158.038 322.792ZM162.333 306.121C164.399 308.947 159.887 310.51 158.924 308.173C158.05 306.073 160.99 304.301 162.333 306.121ZM151.479 279.425C151.525 279.544 151.559 279.631 151.604 279.75C148.981 282.618 145.502 284.664 141.271 285.982C136.626 287.461 132.122 288.241 129.566 291.456C127.593 293.904 126.242 296.555 127.484 300.411C129.757 297.067 132.271 292.515 136.988 290.164C138.093 289.604 139.802 288.948 140.842 288.923C144.088 288.827 146.751 292.677 146.08 296.048C145.449 299.335 142.631 301.872 139.533 303.941C135.915 306.413 131.621 307.484 129.012 310.381C127.718 311.859 126.501 313.713 126.277 315.425C126.228 315.646 126.745 318.494 125.878 318.793C124.686 319.215 124.595 316.509 124.592 316.408C124.641 315.308 124.994 314.462 125.219 313.902C126.325 310.872 127.91 308.572 131.047 306.25C132.471 305.197 134.12 304.563 135.823 303.707C139.051 302.062 141.798 299.789 143.069 297.542C143.476 296.846 143.996 295.731 143.911 294.714C143.482 290.245 139.653 291.374 136.756 292.996C133.537 294.839 132.478 296.226 130.486 298.886C129.799 299.826 129.093 301.688 127.967 302.017C126.401 302.518 125.429 300.252 125.137 298.433C124.523 294.104 127.279 289.12 130.417 286.798C131.578 285.945 133.342 285.167 135.099 284.627C140.604 282.921 145.968 283.232 151.183 279.538C151.27 279.505 151.387 279.46 151.479 279.425ZM147.415 275.099C148.997 276.927 145.981 278.152 145.273 276.663C144.658 275.41 146.381 273.902 147.415 275.099ZM151.364 305.052C152.984 307.069 149.704 307.955 149.105 306.392C148.72 305.39 150.285 303.738 151.364 305.052ZM140.556 277.865C141.98 279.72 138.949 280.817 138.254 279.356C137.559 277.898 139.537 276.528 140.556 277.865ZM137.715 297.702C138.588 298.922 137.174 300.787 135.8 299.858C133.945 298.641 136.369 295.783 137.715 297.702ZM121.434 289.401C121.076 289.268 120.651 289.395 120.285 289.232C120.206 289.025 120.126 288.819 120.047 288.612C120.458 287.474 121.788 288.385 121.434 289.401ZM119.304 301.046C119.909 301.827 118.467 302.484 118.144 301.727C117.889 301.148 118.663 300.176 119.304 301.046ZM120.92 309.664C121.316 310.255 121.287 310.977 121.072 311.297C119.541 313.475 116.645 309.986 119.123 309.035C120.007 308.695 120.466 308.924 120.92 309.664ZM303.138 169.108C303.17 169.196 303.112 169.218 303.053 169.241C298.772 176.164 293.636 183.854 289.127 190.797C285.649 196.191 281.671 201.168 277.52 206.315C276.177 208.014 274.932 210.151 272.652 210.823C272.642 208.593 274.344 206.857 275.518 205.155C277.942 201.685 280.222 198.105 282.8 194.679C284.104 192.961 285.429 191.302 286.732 189.581C291.912 182.621 297.196 175.586 303.138 169.108ZM292.879 138.327C288.957 146.362 281.542 153.574 276.084 161.221C276.539 161.788 277.577 161.762 278.003 162.784C278.326 163.54 277.925 165.486 277.717 166.717C277.104 170.402 277.073 174.644 276.582 178.217C275.207 188.559 272.48 197.59 268.713 206.82C266.818 211.404 264.8 215.935 262.519 220.127C260.228 224.389 257.513 228.51 255.044 232.841C252.581 237.172 249.683 241.261 246.525 245.112C240.203 252.886 233.573 260.742 225.472 267.845C227.705 271.455 227.964 275.484 227.523 278.832C227.22 281.217 226.854 283.523 226.12 285.496C225.469 287.235 224.488 288.999 223.741 290.843C221.647 296.147 218.193 301.16 213.889 305.554C207.989 311.609 202.817 318.058 193.948 322.106C189 324.378 183.122 325.99 178.623 325.112C176.944 325.588 175.535 325.619 174.899 324.139C174.096 322.314 176.077 320.774 177.714 319.572C182.699 315.9 187.346 312.221 190.13 307.837C194.185 301.476 196.885 295.195 196.832 287.737C193.904 289.366 190.445 290.053 187.337 291.482C186.399 291.943 185.555 292.571 184.544 292.926C183.91 293.134 183.167 293.049 182.245 293.2C180.397 293.502 179.038 293.923 177.615 293.656C176.274 293.426 173.001 292.214 172.441 290.227C171.703 287.601 177.067 285.172 177.534 283.13C176.946 283.186 176.523 283.756 176.129 284.144C171.219 289.074 166.133 294.07 159.518 298.437C158.092 299.39 152.968 303.149 151.799 301.162C151.248 300.258 152.81 298.237 153.515 297.254C159.674 288.968 164.992 280.431 172 272.767C179.063 264.982 186.237 257.661 194.078 249.88C195.695 248.276 198.597 245.436 200.144 248.499C201.254 250.679 199.682 252.67 198.91 254.623C194.932 264.712 186.872 273.251 178.98 281.254C181.022 283.313 183.504 284.493 185.749 286.103C186.478 285.891 186.853 285.543 187.501 285.294C187.163 285.119 186.217 285.21 186.091 284.177C185.968 282.973 189.342 281.272 190.857 280.284C196.391 276.807 201.806 273.104 206.864 269.707C214.126 264.823 220.489 259.538 226.349 254.786C226.436 255.901 225.9 256.615 225.391 257.318C223.514 259.832 220.601 262.031 218.005 264.349C215.486 266.602 213.028 269.101 210.424 271.219C204.865 275.787 198.229 279.655 191.699 283.446C199.53 280.134 206.078 275.592 212.022 270.976C218.012 266.308 224.074 262.088 229.07 256.852C225.804 252.49 225.425 244.886 226.085 239.997C227.03 232.933 229.933 228.065 235.35 222.873C240.662 217.753 252.156 211.989 259.32 215.229C261.761 210.569 264.087 206.226 266.619 201.363C268.464 197.882 269.937 194.405 270.961 190.458C271.45 188.647 271.329 186.834 272.881 185.761C273.931 181.976 274.738 178.079 275.379 174.11C274.897 174.532 275.123 176.173 274.013 176.192C273.403 176.187 272.984 175.537 272.759 174.508C271.143 173.74 269.252 173.486 267.732 172.344C267.015 171.805 266.38 170.934 265.54 170.072C263.85 168.316 261.817 167.337 260.713 164.375C247.282 168.177 234.852 174.404 224.355 180.734C227.1 182.861 229.821 185.099 231.693 189.186C235.129 196.732 234.145 203.945 231.633 209.747C228.68 216.601 223.488 222.384 213.786 225.497C207.429 227.53 201.334 226.994 196.466 224.802C191.446 222.567 187.036 219.014 184.062 213.117C174.195 223.027 167.116 235.796 162.965 248.96C161.996 252.075 161.077 255.506 160.389 259.086C160.132 260.269 159.603 261.893 159.793 262.563C160.026 263.523 161.468 264.898 162.229 265.824C163.994 267.955 165.644 269.081 167.464 271.261C168.109 272.062 169.675 274.203 168.833 274.829C167.737 275.588 166.569 273.431 165.731 273.007C164.546 274.68 163.565 276.445 162.543 278.191C163.02 278.99 164.065 280.042 163.747 280.977C162.085 281.412 160.573 279.318 159.343 277.962C157.944 276.437 156.39 274.765 155.704 272.896C155.169 271.41 155.298 269.805 155.479 268.518C155.652 267.199 156.289 266.041 156.541 264.76C157.178 261.57 156.953 258.34 157.922 255.837C156.755 255.439 156.023 254.942 155.05 254.876C151.69 254.678 147.727 256.603 144.672 258.522C138.417 262.41 134.005 265.997 129.058 270.738C128.167 271.59 126.892 272.857 125.918 274.108C125.076 275.178 123.991 277.286 122.537 277.201C121.575 277.163 120.553 275.12 120.272 273.502C119.203 267.28 122.674 260.806 125.318 255.968C131.056 245.439 138.721 235.426 151.315 227.954C158.125 223.916 165.82 221.303 172.447 222.616C182.031 208.619 193.765 195.281 210.249 183.743C218.113 178.222 227.484 172.663 238.486 168.441C246.743 165.272 255.316 161.778 263.449 159.334C266.123 158.545 268.982 157.617 271.2 157.577C271.939 157.564 272.635 158.144 273.483 157.885C274.183 157.683 275.151 156.231 275.882 155.407C278.122 152.957 280.873 150.245 282.938 148.132C286.498 144.533 290.149 141.44 292.879 138.327Z" fill="#222222"/>
<path d="M186.983 170.139C186.983 170.833 186.966 171.526 186.933 172.215H179.549C178.373 172.215 177.426 171.24 177.471 170.057C177.484 168.935 178.533 168.027 179.551 168.063C179.605 168.062 180.617 168.062 181.493 168.062C182.052 168.062 182.554 168.062 182.717 168.062C182.766 167.971 182.761 167.88 182.755 167.788C182.752 168.062 182.771 168.062 182.771 168.062C182.231 158.766 178.491 150.41 172.841 144.179C172.796 144.223 171.836 145.182 171.181 145.837C170.728 146.274 170.667 146.363 170.51 146.504C168.334 148.322 165.837 145.266 167.646 143.497C167.724 143.418 168.528 142.616 169.153 141.99C169.515 141.629 169.817 141.328 169.884 141.26C169.958 141.246 169.632 141.036 169.512 140.903C163.226 135.347 154.724 131.733 145.991 131.339C145.991 131.464 145.991 132.848 145.991 133.757C145.98 134.416 146.005 134.385 145.985 134.71C145.9 135.835 144.91 136.709 143.75 136.618C142.648 136.589 141.769 135.44 141.833 134.539C141.833 134.425 141.833 133.222 141.833 132.322C141.833 131.838 141.833 131.441 141.833 131.35C141.878 131.292 141.476 131.368 141.285 131.363C132.382 131.926 123.987 135.72 117.925 141.252C118.013 141.342 119.033 142.359 119.671 142.997C120.116 143.449 120.069 143.378 120.309 143.647C121.055 144.531 120.927 145.903 119.969 146.629C119.171 147.33 117.723 147.046 117.228 146.428C117.07 146.27 115.595 144.797 115.122 144.326C114.902 143.996 114.793 144.489 114.466 144.764C109.016 150.988 105.404 159.563 105.074 168.063C105.446 168.077 108.509 168.041 108.519 168.077C111.332 168.565 110.605 172.311 108.241 172.215C107.944 172.215 105.837 172.215 105.222 172.215C104.914 172.08 105.124 172.689 105.114 173.145C105.669 181.525 109.465 190.237 114.991 196.091C115.488 195.622 117.29 193.717 117.532 193.582C120.122 192.078 121.755 195.449 120.158 196.785C119.807 197.139 117.089 199.872 115.74 201.23C115.321 201.651 115.034 201.941 114.989 201.986C114.953 201.945 114.462 201.544 114.252 201.325C113.258 200.397 112.313 199.403 111.424 198.393C103.999 189.923 100.153 178.779 100.944 167.188C106.741 112.392 184.945 114.855 186.983 170.139Z" fill="#222222"/>
<path d="M145.556 171.974C145.485 170.878 144.736 170.784 143.631 170.34C141.691 169.758 139.576 168.606 139.662 166.658C139.661 165.319 140.521 164.361 141.776 163.864C143.673 163.119 146.558 163.317 147.763 165.146C148.123 165.685 148.304 166.301 148.304 166.994H145.564C145.674 165.544 143.751 165.176 142.82 165.857C141.012 167.798 145.446 168.225 146.456 169.027C148.551 170.077 148.983 172.941 147.177 174.304C145.308 175.697 141.27 175.427 139.885 173.299C139.507 172.723 139.318 172.06 139.318 171.31H142.072C142.085 172.625 142.754 173.086 144.085 173.091C144.87 173.093 145.549 172.78 145.556 171.974Z" fill="#222222"/>
<path d="M156.781 170.169H152.459V172.888H157.562V174.999H149.712V163.618H157.579V165.736H152.459V168.135H156.781V170.169Z" fill="#222222"/>
<path d="M168.333 169.543C168.643 175.102 161.748 177.388 159.023 172.576C157.809 169.965 158.063 165.759 160.737 164.157C164.736 161.941 168.738 165.12 168.333 169.543ZM165.539 169.067C165.539 167.935 165.35 167.076 164.972 166.491C164.594 165.904 164.052 165.611 163.348 165.611C161.97 165.611 161.242 166.643 161.164 168.707L161.155 169.543C161.155 170.658 161.341 171.515 161.712 172.115C162.369 173.297 164.286 173.327 164.967 172.13C165.422 171.5 165.583 170.162 165.539 169.067Z" fill="#222222"/>
<path d="M156.752 139.175L149.073 161.088L148.699 162.163C148.158 162.031 147.049 161.683 146.524 161.545C144.011 160.955 141.247 161.522 139.199 163.098C136.414 165.226 135.216 169.094 136.505 172.382C137.322 174.528 139.119 176.159 141.291 176.875L138.617 182.502C132.237 179.555 129.196 171.438 132.418 165.128C132.997 164.029 133.694 162.937 134.575 162.051C134.52 162.068 156.766 139.176 156.752 139.175Z" fill="#222222"/>
<path d="M149.839 140.334L138.853 151.662C125.744 154.498 115.786 165.767 114.964 179.495C107.66 157.835 127.411 135.613 149.839 140.334Z" fill="#222222"/>
</svg>
