<svg xmlns="http://www.w3.org/2000/svg" xmlns:xlink="http://www.w3.org/1999/xlink" width="1000" zoomAndPan="magnify" viewBox="0 0 750 749.999995" height="1000" preserveAspectRatio="xMidYMid meet" version="1.0"><defs><clipPath id="4d5ab52e02"><path d="M 60 690 L 107 690 L 107 735.796875 L 60 735.796875 Z M 60 690 " clip-rule="nonzero"/></clipPath><clipPath id="0618da80aa"><path d="M 335 14.296875 L 352 14.296875 L 352 31 L 335 31 Z M 335 14.296875 " clip-rule="nonzero"/></clipPath></defs><path fill="#222222" d="M 250.511719 523.066406 L 730.527344 548.210938 C 730.527344 548.210938 738.433594 541.113281 743.035156 536.480469 C 747.34375 532.136719 750.019531 526.15625 750.019531 519.523438 L 750.019531 196.980469 C 750.019531 184.089844 739.867188 173.484375 726.988281 172.925781 L 252.589844 152.417969 C 246.664062 152.164062 241.160156 154.070312 236.824219 157.425781 C 233.988281 159.621094 223.761719 165.589844 223.761719 165.589844 L 227.480469 499.011719 C 227.480469 511.90625 237.632812 522.507812 250.511719 523.066406 " fill-opacity="1" fill-rule="nonzero"/><path fill="#ffffff" d="M 237.910156 532.757812 L 707.726562 554.859375 C 721.417969 555.453125 737.421875 542.921875 737.421875 529.214844 L 737.421875 206.671875 C 737.421875 193.78125 727.265625 183.175781 714.390625 182.621094 L 239.988281 162.109375 C 226.300781 161.515625 214.878906 172.460938 214.878906 186.160156 L 214.878906 508.707031 C 214.878906 521.597656 225.03125 532.203125 237.910156 532.757812 " fill-opacity="1" fill-rule="nonzero"/><path fill="#222222" d="M 238.917969 162.996094 C 232.929688 162.996094 227.285156 165.257812 222.925781 169.429688 C 218.320312 173.84375 215.785156 179.785156 215.785156 186.164062 L 215.785156 508.710938 C 215.785156 521.148438 225.519531 531.316406 237.949219 531.851562 C 237.949219 531.851562 237.953125 531.851562 237.953125 531.851562 L 707.769531 553.953125 C 714.777344 554.265625 722.832031 550.917969 728.753906 545.246094 C 733.757812 540.453125 736.515625 534.761719 736.515625 529.214844 L 736.515625 206.675781 C 736.515625 194.230469 726.777344 184.0625 714.351562 183.527344 L 239.949219 163.015625 C 239.605469 163 239.261719 162.996094 238.917969 162.996094 Z M 708.644531 555.789062 C 708.320312 555.789062 708.003906 555.78125 707.683594 555.765625 L 237.867188 533.664062 C 224.46875 533.085938 213.972656 522.121094 213.972656 508.710938 L 213.972656 186.164062 C 213.972656 179.285156 216.707031 172.878906 221.671875 168.121094 C 226.640625 163.363281 233.164062 160.917969 240.027344 161.203125 L 714.425781 181.714844 C 727.832031 182.292969 738.328125 193.257812 738.328125 206.675781 L 738.328125 529.214844 C 738.328125 535.261719 735.375 541.417969 730.015625 546.554688 C 724.007812 552.308594 715.90625 555.789062 708.644531 555.789062 " fill-opacity="1" fill-rule="nonzero"/><path fill="#ffffff" d="M 257.574219 518.308594 L 692.816406 537.128906 C 705.375 537.667969 715.855469 527.632812 715.855469 515.0625 L 715.855469 219.140625 C 715.855469 207.3125 706.535156 197.582031 694.722656 197.070312 L 259.480469 178.253906 C 246.921875 177.710938 236.441406 187.75 236.441406 200.324219 L 236.441406 496.246094 C 236.441406 508.070312 245.757812 517.800781 257.574219 518.308594 " fill-opacity="1" fill-rule="nonzero"/><path fill="#222222" d="M 257.613281 517.40625 L 692.851562 536.222656 C 698.695312 536.476562 704.207031 534.390625 708.414062 530.359375 C 712.625 526.324219 714.949219 520.890625 714.949219 515.0625 L 714.949219 219.140625 C 714.949219 207.761719 706.046875 198.472656 694.6875 197.980469 L 259.441406 179.164062 C 253.609375 178.90625 248.089844 180.992188 243.878906 185.023438 C 239.667969 189.058594 237.351562 194.488281 237.351562 200.324219 L 237.351562 496.242188 C 237.351562 507.617188 246.25 516.914062 257.613281 517.40625 Z M 693.800781 538.054688 C 693.457031 538.054688 693.117188 538.046875 692.777344 538.03125 L 257.535156 519.214844 C 245.199219 518.683594 235.535156 508.589844 235.535156 496.242188 L 235.535156 200.324219 C 235.535156 193.992188 238.054688 188.097656 242.625 183.714844 C 247.195312 179.335938 253.199219 177.070312 259.519531 177.351562 L 694.761719 196.167969 C 707.097656 196.699219 716.757812 206.789062 716.757812 219.140625 L 716.757812 515.0625 C 716.757812 521.390625 714.242188 527.289062 709.671875 531.667969 C 705.351562 535.808594 699.746094 538.054688 693.800781 538.054688 " fill-opacity="1" fill-rule="nonzero"/><path fill="#222222" d="M 3.027344 599.1875 L 489.226562 621.355469 C 503.859375 622.027344 518.527344 620.726562 532.8125 617.488281 L 726.445312 573.628906 C 728.195312 573.234375 728.96875 571.777344 728.882812 570.378906 C 728.882812 570.308594 728.875 570.054688 728.875 570.054688 L 728.949219 556.367188 L 231.167969 544.5625 C 222.785156 544.175781 214.390625 544.917969 206.207031 546.777344 L 0.015625 581.222656 L 0.0351562 596.023438 C 0.0351562 596.023438 0.246094 595.949219 0.246094 595.964844 C 0.265625 597.480469 1.09375 599.101562 3.027344 599.1875 " fill-opacity="1" fill-rule="nonzero"/><path fill="#ffffff" d="M 4.390625 584.503906 L 488.230469 606.6875 C 502.800781 607.355469 517.398438 606.058594 531.621094 602.835938 L 725.082031 559 C 728.621094 558.195312 728.164062 553.015625 724.535156 552.847656 L 231.316406 530.234375 C 222.972656 529.851562 214.609375 530.59375 206.464844 532.441406 L 3.847656 578.347656 C 0.304688 579.152344 0.765625 584.339844 4.390625 584.503906 " fill-opacity="1" fill-rule="nonzero"/><path fill="#222222" d="M 495.683594 607.765625 C 493.1875 607.765625 490.691406 607.707031 488.191406 607.589844 L 4.351562 585.410156 C 2.285156 585.316406 0.710938 583.804688 0.527344 581.746094 C 0.347656 579.683594 1.628906 577.921875 3.648438 577.464844 L 206.261719 531.550781 C 214.488281 529.691406 222.925781 528.941406 231.359375 529.328125 L 372.859375 535.8125 C 373.359375 535.835938 373.746094 536.261719 373.722656 536.761719 C 373.703125 537.261719 373.265625 537.648438 372.777344 537.625 L 231.277344 531.140625 C 223.011719 530.761719 214.730469 531.492188 206.664062 533.324219 L 4.046875 579.234375 C 2.65625 579.550781 2.257812 580.695312 2.335938 581.582031 C 2.414062 582.46875 3.011719 583.53125 4.433594 583.597656 L 488.277344 605.777344 C 502.757812 606.445312 517.277344 605.15625 531.425781 601.953125 L 724.882812 558.113281 C 726.273438 557.800781 726.671875 556.652344 726.597656 555.765625 C 726.511719 554.878906 725.921875 553.816406 724.492188 553.753906 L 583.15625 547.273438 C 582.660156 547.25 582.273438 546.828125 582.296875 546.328125 C 582.320312 545.828125 582.757812 545.445312 583.242188 545.460938 L 724.582031 551.941406 C 726.648438 552.035156 728.21875 553.542969 728.402344 555.605469 C 728.582031 557.667969 727.300781 559.425781 725.289062 559.882812 L 531.820312 603.722656 C 519.960938 606.410156 507.832031 607.765625 495.683594 607.765625 " fill-opacity="1" fill-rule="nonzero"/><path fill="#ffffff" d="M 659.550781 92.050781 L 292.179688 75.210938 C 277.84375 74.554688 266.226562 84.691406 266.226562 97.855469 L 266.226562 470.007812 C 266.226562 483.167969 277.84375 494.367188 292.179688 495.027344 L 659.550781 511.867188 C 673.882812 512.523438 685.5 502.386719 685.5 489.226562 L 685.5 117.074219 C 685.5 103.910156 673.882812 92.710938 659.550781 92.050781 " fill-opacity="1" fill-rule="nonzero"/><path fill="#222222" d="M 290.894531 76.09375 C 284.339844 76.09375 278.121094 78.46875 273.671875 82.722656 C 269.457031 86.75 267.132812 92.125 267.132812 97.855469 L 267.132812 470.007812 C 267.132812 482.667969 278.386719 493.484375 292.222656 494.121094 L 659.589844 510.960938 C 666.601562 511.28125 673.328125 508.878906 678.050781 504.363281 C 682.269531 500.332031 684.597656 494.957031 684.597656 489.226562 L 684.597656 117.070312 C 684.597656 104.410156 673.339844 93.59375 659.503906 92.957031 L 292.140625 76.117188 C 291.722656 76.101562 291.308594 76.09375 290.894531 76.09375 Z M 660.832031 512.800781 C 660.386719 512.800781 659.949219 512.792969 659.503906 512.773438 L 292.140625 495.933594 C 277.347656 495.253906 265.320312 483.625 265.320312 470.007812 L 265.320312 97.855469 C 265.320312 91.625 267.839844 85.785156 272.417969 81.410156 C 277.503906 76.550781 284.71875 73.960938 292.222656 74.304688 L 659.589844 91.144531 C 674.378906 91.828125 686.410156 103.457031 686.410156 117.070312 L 686.410156 489.226562 C 686.410156 495.457031 683.886719 501.296875 679.304688 505.671875 C 674.527344 510.242188 667.851562 512.800781 660.832031 512.800781 " fill-opacity="1" fill-rule="nonzero"/><path fill="#222222" d="M 665.203125 132.328125 C 665.191406 132.328125 665.179688 132.328125 665.160156 132.328125 L 286.8125 114.984375 C 286.3125 114.960938 285.925781 114.535156 285.949219 114.035156 C 285.976562 113.535156 286.417969 113.160156 286.898438 113.171875 L 665.246094 130.515625 C 665.746094 130.539062 666.132812 130.960938 666.109375 131.460938 C 666.089844 131.945312 665.6875 132.328125 665.203125 132.328125 " fill-opacity="1" fill-rule="nonzero"/><path fill="#222222" d="M 300.164062 93.914062 C 300.164062 97.289062 297.1875 99.886719 293.511719 99.71875 C 289.835938 99.550781 286.855469 96.679688 286.855469 93.304688 C 286.855469 89.929688 289.835938 87.328125 293.511719 87.496094 C 297.1875 87.664062 300.164062 90.535156 300.164062 93.914062 " fill-opacity="1" fill-rule="nonzero"/><path fill="#222222" d="M 326.785156 95.132812 C 326.785156 98.507812 323.804688 101.105469 320.128906 100.9375 C 316.457031 100.773438 313.472656 97.898438 313.472656 94.523438 C 313.472656 91.148438 316.457031 88.550781 320.128906 88.714844 C 323.804688 88.886719 326.785156 91.757812 326.785156 95.132812 " fill-opacity="1" fill-rule="nonzero"/><path fill="#222222" d="M 353.40625 96.351562 C 353.40625 99.730469 350.429688 102.328125 346.753906 102.160156 C 343.078125 101.992188 340.097656 99.121094 340.097656 95.746094 C 340.097656 92.371094 343.078125 89.769531 346.753906 89.9375 C 350.429688 90.109375 353.40625 92.976562 353.40625 96.351562 " fill-opacity="1" fill-rule="nonzero"/><path fill="#222222" d="M 665.203125 111.550781 C 665.191406 111.550781 665.179688 111.550781 665.160156 111.550781 L 627.671875 109.828125 C 627.171875 109.808594 626.789062 109.382812 626.804688 108.882812 C 626.832031 108.382812 627.273438 108 627.753906 108.023438 L 665.246094 109.738281 C 665.746094 109.761719 666.132812 110.183594 666.109375 110.683594 C 666.089844 111.171875 665.6875 111.550781 665.203125 111.550781 " fill-opacity="1" fill-rule="nonzero"/><path fill="#222222" d="M 610.851562 109.066406 C 610.835938 109.066406 610.820312 109.066406 610.808594 109.066406 L 455.523438 101.945312 C 455.023438 101.921875 454.636719 101.496094 454.660156 100.996094 C 454.679688 100.5 455.117188 100.117188 455.601562 100.132812 L 610.890625 107.253906 C 611.390625 107.273438 611.777344 107.699219 611.753906 108.199219 C 611.734375 108.683594 611.335938 109.066406 610.851562 109.066406 " fill-opacity="1" fill-rule="nonzero"/><path fill="#222222" d="M 414.75 100.066406 C 414.730469 100.066406 414.71875 100.066406 414.707031 100.066406 L 381.652344 98.554688 C 381.152344 98.53125 380.765625 98.105469 380.789062 97.601562 C 380.8125 97.105469 381.234375 96.734375 381.734375 96.742188 L 414.789062 98.253906 C 415.289062 98.28125 415.679688 98.703125 415.652344 99.203125 C 415.628906 99.6875 415.230469 100.066406 414.75 100.066406 " fill-opacity="1" fill-rule="nonzero"/><path fill="#222222" d="M 294.011719 188.753906 L 325.714844 201.179688 C 329.585938 195.070312 336.242188 191.128906 343.773438 190.476562 L 344.300781 160.46875 C 322.855469 159.785156 303.308594 170.792969 294.011719 188.753906 Z M 326.089844 203.210938 C 325.980469 203.210938 325.871094 203.1875 325.761719 203.148438 L 292.421875 190.078125 C 292.1875 189.988281 292 189.800781 291.90625 189.558594 C 291.816406 189.324219 291.828125 189.058594 291.941406 188.832031 C 301.488281 169.457031 322.394531 157.617188 345.265625 158.691406 C 345.757812 158.710938 346.140625 159.121094 346.128906 159.613281 L 345.574219 191.339844 C 345.5625 191.8125 345.191406 192.199219 344.714844 192.226562 C 337.171875 192.632812 330.503906 196.570312 326.875 202.761719 C 326.707031 203.042969 326.40625 203.210938 326.089844 203.210938 " fill-opacity="1" fill-rule="nonzero"/><path fill="#222222" d="M 324.523438 168.097656 C 324.152344 168.097656 323.800781 167.867188 323.664062 167.496094 C 323.5 167.023438 323.746094 166.507812 324.214844 166.339844 C 329.441406 164.472656 334.941406 163.429688 340.566406 163.222656 C 341.0625 163.210938 341.488281 163.59375 341.503906 164.09375 C 341.527344 164.597656 341.140625 165.015625 340.636719 165.03125 C 335.191406 165.234375 329.871094 166.246094 324.824219 168.046875 C 324.726562 168.078125 324.621094 168.097656 324.523438 168.097656 " fill-opacity="1" fill-rule="nonzero"/><path fill="#222222" d="M 306.226562 179.421875 C 305.988281 179.421875 305.753906 179.332031 305.574219 179.152344 C 305.230469 178.792969 305.230469 178.214844 305.589844 177.867188 C 309.535156 174.023438 314.113281 170.84375 319.199219 168.417969 C 319.644531 168.203125 320.1875 168.394531 320.402344 168.847656 C 320.617188 169.300781 320.429688 169.84375 319.976562 170.058594 C 315.070312 172.398438 310.65625 175.460938 306.859375 179.164062 C 306.683594 179.335938 306.453125 179.421875 306.226562 179.421875 " fill-opacity="1" fill-rule="nonzero"/><path fill="#222222" d="M 320.914062 261.15625 C 329.148438 265.125 338.347656 267.1875 347.445312 267.117188 C 374.96875 266.910156 397.660156 247.46875 400.628906 221.746094 L 371.132812 219.554688 C 368.800781 230.128906 358.945312 237.574219 347.4375 237.347656 C 344.1875 237.285156 341.027344 236.632812 338.03125 235.414062 Z M 347 268.929688 C 337.382812 268.929688 327.769531 266.648438 319.179688 262.328125 C 318.949219 262.210938 318.777344 262 318.710938 261.746094 C 318.644531 261.496094 318.691406 261.230469 318.832031 261.015625 L 336.9375 233.78125 C 337.179688 233.414062 337.65625 233.273438 338.054688 233.457031 C 341.039062 234.769531 344.207031 235.46875 347.46875 235.53125 C 347.621094 235.535156 347.777344 235.535156 347.929688 235.535156 C 358.660156 235.535156 367.691406 228.40625 369.507812 218.429688 C 369.59375 217.972656 370.007812 217.648438 370.46875 217.691406 L 401.695312 220.003906 C 401.9375 220.023438 402.167969 220.136719 402.320312 220.324219 C 402.480469 220.507812 402.558594 220.753906 402.53125 220.996094 C 399.921875 248.105469 376.242188 268.710938 347.460938 268.925781 C 347.304688 268.929688 347.152344 268.929688 347 268.929688 " fill-opacity="1" fill-rule="nonzero"/><path fill="#222222" d="M 346.761719 264.375 C 345.804688 264.375 344.835938 264.351562 343.878906 264.304688 C 337.738281 263.992188 331.75 262.71875 326.070312 260.507812 C 325.601562 260.328125 325.371094 259.804688 325.550781 259.332031 C 325.734375 258.867188 326.261719 258.636719 326.726562 258.816406 C 332.222656 260.957031 338.027344 262.191406 343.96875 262.492188 C 345.039062 262.546875 346.121094 262.566406 347.183594 262.558594 C 347.1875 262.558594 347.1875 262.558594 347.191406 262.558594 C 347.6875 262.558594 348.09375 262.960938 348.097656 263.457031 C 348.101562 263.960938 347.699219 264.371094 347.199219 264.371094 C 347.050781 264.375 346.90625 264.375 346.761719 264.375 " fill-opacity="1" fill-rule="nonzero"/><path fill="#222222" d="M 358.621094 263.074219 C 358.203125 263.074219 357.832031 262.789062 357.734375 262.363281 C 357.628906 261.878906 357.9375 261.394531 358.425781 261.28125 C 377.269531 257.070312 391.820312 242.785156 395.503906 224.894531 C 395.597656 224.40625 396.082031 224.085938 396.570312 224.1875 C 397.0625 224.289062 397.375 224.769531 397.277344 225.261719 C 393.457031 243.851562 378.359375 258.683594 358.820312 263.054688 C 358.753906 263.066406 358.6875 263.074219 358.621094 263.074219 " fill-opacity="1" fill-rule="nonzero"/><path fill="#222222" d="M 290.902344 196.199219 C 289.292969 201.148438 288.480469 206.332031 288.480469 211.621094 C 288.480469 229.589844 297.875 246.496094 313.664062 257.023438 L 330.976562 231.148438 C 325.457031 226.472656 322.304688 219.894531 322.304688 212.96875 C 322.304688 211.46875 322.453125 209.972656 322.753906 208.511719 Z M 313.914062 259.179688 C 313.75 259.179688 313.574219 259.136719 313.429688 259.035156 C 296.671875 248.21875 286.671875 230.492188 286.671875 211.621094 C 286.671875 205.808594 287.617188 200.121094 289.488281 194.710938 C 289.566406 194.480469 289.738281 194.289062 289.960938 194.1875 C 290.183594 194.085938 290.441406 194.078125 290.667969 194.167969 L 324.136719 207.105469 C 324.558594 207.269531 324.796875 207.722656 324.6875 208.164062 C 324.3125 209.726562 324.117188 211.34375 324.117188 212.96875 C 324.117188 219.601562 327.265625 225.902344 332.753906 230.257812 C 333.121094 230.554688 333.207031 231.082031 332.945312 231.476562 L 314.671875 258.78125 C 314.496094 259.042969 314.210938 259.179688 313.914062 259.179688 " fill-opacity="1" fill-rule="nonzero"/><path fill="#222222" d="M 355.046875 190.636719 C 365.601562 192.746094 373.726562 201.371094 374.6875 211.574219 L 425.761719 215.621094 C 425.761719 215.597656 425.761719 215.574219 425.761719 215.550781 C 425.761719 177.941406 395.910156 144.261719 355.957031 138.117188 L 355.046875 190.636719 " fill-opacity="1" fill-rule="nonzero"/><path fill="#222222" d="M 299.671875 381.117188 C 298.773438 381.117188 297.898438 381.5 297.128906 382.234375 C 295.6875 383.621094 294.828125 386.015625 294.828125 388.640625 C 294.828125 392.859375 297.136719 396.519531 299.871094 396.628906 L 526.886719 405.761719 C 527.832031 405.800781 528.746094 405.414062 529.550781 404.644531 C 530.992188 403.257812 531.851562 400.867188 531.851562 398.242188 C 531.851562 394.023438 529.542969 390.359375 526.8125 390.25 L 299.800781 381.121094 C 299.753906 381.117188 299.710938 381.117188 299.671875 381.117188 Z M 527.015625 407.582031 C 526.945312 407.582031 526.882812 407.578125 526.8125 407.578125 L 299.800781 398.441406 C 295.992188 398.289062 293.015625 393.980469 293.015625 388.640625 C 293.015625 385.527344 294.085938 382.644531 295.875 380.929688 C 297.042969 379.804688 298.441406 379.238281 299.871094 379.304688 L 526.886719 388.441406 C 530.683594 388.589844 533.664062 392.898438 533.664062 398.242188 C 533.664062 401.347656 532.597656 404.230469 530.808594 405.953125 C 529.699219 407.023438 528.386719 407.582031 527.015625 407.582031 " fill-opacity="1" fill-rule="nonzero"/><path fill="#222222" d="M 299.671875 418.429688 C 298.777344 418.429688 297.898438 418.816406 297.128906 419.546875 C 295.6875 420.933594 294.828125 423.328125 294.828125 425.949219 C 294.828125 430.171875 297.136719 433.832031 299.871094 433.945312 L 526.886719 443.074219 C 527.832031 443.113281 528.746094 442.726562 529.550781 441.957031 C 530.992188 440.570312 531.851562 438.179688 531.851562 435.558594 C 531.851562 431.335938 529.542969 427.675781 526.8125 427.5625 L 299.800781 418.429688 C 299.753906 418.429688 299.710938 418.429688 299.671875 418.429688 Z M 527.015625 444.890625 C 526.945312 444.890625 526.882812 444.890625 526.8125 444.886719 L 299.800781 435.757812 C 295.992188 435.601562 293.015625 431.292969 293.015625 425.949219 C 293.015625 422.84375 294.085938 419.964844 295.875 418.242188 C 297.042969 417.121094 298.40625 416.558594 299.871094 416.617188 L 526.886719 425.753906 C 530.683594 425.902344 533.664062 430.210938 533.664062 435.558594 C 533.664062 438.667969 532.597656 441.546875 530.808594 443.269531 C 529.699219 444.332031 528.386719 444.890625 527.015625 444.890625 " fill-opacity="1" fill-rule="nonzero"/><path fill="#222222" d="M 526.886719 480.386719 C 527.824219 480.421875 528.746094 480.042969 529.550781 479.269531 C 530.992188 477.882812 531.851562 475.492188 531.851562 472.867188 C 531.851562 468.648438 529.542969 464.988281 526.8125 464.878906 L 299.800781 455.742188 C 298.835938 455.695312 297.933594 456.09375 297.128906 456.859375 C 295.6875 458.246094 294.828125 460.640625 294.828125 463.261719 C 294.828125 467.484375 297.136719 471.148438 299.871094 471.253906 Z M 527.011719 482.203125 C 526.945312 482.203125 526.882812 482.203125 526.8125 482.199219 L 299.800781 473.066406 C 295.992188 472.914062 293.015625 468.609375 293.015625 463.261719 C 293.015625 460.15625 294.085938 457.277344 295.875 455.554688 C 297.042969 454.433594 298.441406 453.863281 299.871094 453.929688 L 526.886719 463.066406 C 530.683594 463.214844 533.664062 467.523438 533.664062 472.867188 C 533.664062 475.980469 532.597656 478.859375 530.808594 480.578125 C 529.699219 481.644531 528.386719 482.203125 527.011719 482.203125 " fill-opacity="1" fill-rule="nonzero"/><path fill="#222222" d="M 448.128906 159.851562 C 447.472656 159.851562 446.839844 160.136719 446.246094 160.703125 C 444.867188 162.015625 444.003906 164.5625 444.003906 167.351562 C 444.003906 171.578125 445.988281 175.25 448.332031 175.367188 L 647.738281 185.363281 C 648.433594 185.394531 649.105469 185.113281 649.734375 184.515625 C 651.113281 183.199219 651.976562 180.648438 651.976562 177.867188 C 651.976562 173.632812 649.988281 169.96875 647.648438 169.847656 L 448.246094 159.855469 C 448.207031 159.851562 448.167969 159.851562 448.128906 159.851562 Z M 647.851562 187.179688 C 647.78125 187.179688 647.714844 187.175781 647.648438 187.175781 L 448.246094 177.175781 C 444.847656 177.011719 442.1875 172.691406 442.1875 167.351562 C 442.1875 164.035156 443.242188 161.058594 444.992188 159.386719 C 445.988281 158.449219 447.160156 157.980469 448.332031 158.042969 L 647.738281 168.039062 C 651.128906 168.207031 653.789062 172.523438 653.789062 177.867188 C 653.789062 181.179688 652.738281 184.15625 650.984375 185.824219 C 650.054688 186.714844 648.972656 187.179688 647.851562 187.179688 " fill-opacity="1" fill-rule="nonzero"/><path fill="#222222" d="M 448.128906 197.164062 C 447.472656 197.164062 446.839844 197.449219 446.246094 198.015625 C 444.867188 199.328125 444.003906 201.878906 444.003906 204.660156 C 444.003906 208.890625 445.988281 212.558594 448.332031 212.675781 L 647.738281 222.671875 C 648.433594 222.707031 649.109375 222.421875 649.734375 221.824219 C 651.113281 220.507812 651.976562 217.964844 651.976562 215.175781 C 651.976562 210.949219 649.992188 207.277344 647.648438 207.160156 L 448.246094 197.164062 C 448.207031 197.164062 448.167969 197.164062 448.128906 197.164062 Z M 647.851562 224.488281 C 647.78125 224.488281 647.714844 224.488281 647.648438 224.484375 L 448.246094 214.492188 C 444.847656 214.320312 442.1875 210.003906 442.1875 204.660156 C 442.1875 201.347656 443.242188 198.371094 444.992188 196.699219 C 445.980469 195.757812 447.136719 195.292969 448.332031 195.355469 L 647.738281 205.351562 C 651.128906 205.523438 653.789062 209.839844 653.789062 215.175781 C 653.789062 218.496094 652.738281 221.46875 650.984375 223.140625 C 650.054688 224.027344 648.972656 224.488281 647.851562 224.488281 " fill-opacity="1" fill-rule="nonzero"/><path fill="#222222" d="M 647.738281 259.988281 C 648.433594 260.015625 649.109375 259.738281 649.734375 259.140625 C 651.113281 257.824219 651.976562 255.273438 651.976562 252.492188 C 651.976562 248.261719 649.988281 244.59375 647.648438 244.476562 L 448.246094 234.480469 C 447.542969 234.445312 446.871094 234.730469 446.246094 235.328125 C 444.867188 236.644531 444.003906 239.1875 444.003906 241.976562 C 444.003906 246.203125 445.988281 249.875 448.332031 249.992188 Z M 647.851562 261.804688 C 647.78125 261.804688 647.714844 261.800781 647.648438 261.800781 L 448.246094 251.800781 C 444.847656 251.632812 442.1875 247.316406 442.1875 241.976562 C 442.1875 238.65625 443.242188 235.683594 444.992188 234.011719 C 445.988281 233.074219 447.160156 232.609375 448.332031 232.667969 L 647.738281 242.660156 C 651.128906 242.832031 653.789062 247.148438 653.789062 252.492188 C 653.789062 255.804688 652.738281 258.78125 650.984375 260.453125 C 650.054688 261.339844 648.972656 261.804688 647.851562 261.804688 " fill-opacity="1" fill-rule="nonzero"/><path fill="#222222" d="M 469.164062 475.410156 C 451.496094 480.652344 432.929688 470.582031 427.6875 452.914062 C 422.445312 435.246094 432.519531 416.671875 450.179688 411.429688 C 467.847656 406.191406 486.417969 416.261719 491.65625 433.929688 C 496.898438 451.597656 486.828125 470.167969 469.164062 475.410156 Z M 517.175781 411.617188 C 516.851562 410.898438 516.074219 410.507812 515.304688 410.667969 L 504.152344 413.011719 C 503.5 413.152344 502.835938 412.882812 502.449219 412.339844 C 501.136719 410.53125 499.726562 408.8125 498.222656 407.207031 C 497.769531 406.722656 497.636719 406.023438 497.894531 405.414062 L 502.28125 394.90625 C 502.585938 394.179688 502.34375 393.339844 501.710938 392.882812 L 493.578125 387.097656 C 492.9375 386.640625 492.0625 386.6875 491.472656 387.214844 L 482.992188 394.828125 C 482.496094 395.273438 481.789062 395.375 481.183594 395.101562 C 479.164062 394.199219 477.082031 393.425781 474.964844 392.78125 C 474.328125 392.59375 473.863281 392.058594 473.78125 391.398438 L 472.332031 380.074219 C 472.234375 379.296875 471.601562 378.6875 470.820312 378.613281 L 460.894531 377.675781 C 460.109375 377.597656 459.375 378.074219 459.128906 378.820312 L 455.59375 389.648438 C 455.382812 390.277344 454.832031 390.714844 454.167969 390.785156 C 451.980469 391.015625 449.792969 391.390625 447.621094 391.90625 C 446.96875 392.058594 446.296875 391.828125 445.890625 391.296875 L 438.992188 382.222656 C 438.511719 381.597656 437.660156 381.386719 436.953125 381.714844 L 427.878906 385.859375 C 427.160156 386.1875 426.769531 386.96875 426.933594 387.742188 L 429.28125 398.902344 C 429.414062 399.550781 429.148438 400.210938 428.609375 400.601562 C 426.792969 401.914062 425.082031 403.328125 423.476562 404.832031 C 422.992188 405.285156 422.296875 405.417969 421.6875 405.160156 L 411.191406 400.765625 C 410.460938 400.457031 409.621094 400.699219 409.164062 401.34375 L 403.382812 409.476562 C 402.929688 410.121094 402.976562 410.988281 403.503906 411.574219 L 411.113281 420.078125 C 411.554688 420.570312 411.660156 421.273438 411.390625 421.875 C 410.488281 423.902344 409.710938 425.984375 409.074219 428.105469 C 408.878906 428.742188 408.34375 429.207031 407.6875 429.289062 L 396.378906 430.738281 C 395.597656 430.835938 394.992188 431.464844 394.914062 432.25 L 393.972656 442.191406 C 393.898438 442.972656 394.375 443.699219 395.125 443.945312 L 405.941406 447.492188 C 406.570312 447.695312 407.007812 448.257812 407.082031 448.914062 C 407.3125 451.105469 407.6875 453.296875 408.195312 455.476562 C 408.351562 456.121094 408.117188 456.796875 407.59375 457.203125 L 398.523438 464.109375 C 397.902344 464.589844 397.6875 465.433594 398.015625 466.144531 L 402.164062 475.226562 C 402.492188 475.945312 403.273438 476.335938 404.046875 476.175781 L 415.195312 473.832031 C 415.84375 473.691406 416.503906 473.960938 416.894531 474.5 C 418.207031 476.3125 419.617188 478.03125 421.121094 479.636719 C 421.574219 480.121094 421.710938 480.820312 421.453125 481.429688 L 417.058594 491.9375 C 416.753906 492.664062 416.996094 493.503906 417.640625 493.960938 L 425.769531 499.746094 C 426.40625 500.203125 427.28125 500.15625 427.867188 499.628906 L 436.355469 492.015625 C 436.851562 491.570312 437.550781 491.46875 438.160156 491.742188 C 440.183594 492.644531 442.261719 493.417969 444.378906 494.058594 C 445.011719 494.25 445.476562 494.789062 445.566406 495.445312 L 447.011719 506.765625 C 447.113281 507.546875 447.738281 508.15625 448.519531 508.230469 L 458.453125 509.171875 C 459.234375 509.246094 459.96875 508.769531 460.210938 508.019531 L 463.753906 497.195312 C 463.957031 496.5625 464.515625 496.125 465.175781 496.054688 C 467.363281 495.828125 469.546875 495.453125 471.726562 494.9375 C 472.375 494.789062 473.046875 495.015625 473.449219 495.546875 L 480.355469 504.621094 C 480.832031 505.246094 481.679688 505.457031 482.394531 505.132812 L 491.460938 500.980469 C 492.179688 500.65625 492.574219 499.875 492.414062 499.101562 L 490.066406 487.941406 C 489.933594 487.292969 490.195312 486.628906 490.738281 486.238281 C 492.546875 484.929688 494.261719 483.515625 495.863281 482.011719 C 496.351562 481.558594 497.046875 481.425781 497.660156 481.679688 L 508.15625 486.078125 C 508.886719 486.382812 509.722656 486.140625 510.179688 485.5 L 515.960938 477.367188 C 516.414062 476.722656 516.367188 475.851562 515.84375 475.265625 L 508.230469 466.769531 C 507.789062 466.273438 507.6875 465.570312 507.957031 464.964844 C 508.855469 462.9375 509.632812 460.859375 510.269531 458.738281 C 510.460938 458.101562 511.003906 457.636719 511.660156 457.554688 L 522.964844 456.105469 C 523.742188 456.003906 524.355469 455.375 524.425781 454.589844 L 525.367188 444.652344 C 525.445312 443.867188 524.96875 443.144531 524.21875 442.898438 L 513.402344 439.351562 C 512.769531 439.144531 512.335938 438.585938 512.265625 437.929688 C 512.035156 435.738281 511.660156 433.542969 511.144531 431.367188 C 510.992188 430.722656 511.222656 430.046875 511.753906 429.640625 L 520.816406 422.734375 C 521.445312 422.253906 521.652344 421.410156 521.324219 420.695312 L 517.175781 411.617188 " fill-opacity="1" fill-rule="nonzero"/><path fill="#222222" d="M 545.9375 376.519531 C 535.675781 382.890625 522.203125 379.734375 515.832031 369.46875 C 509.460938 359.203125 512.609375 345.71875 522.863281 339.347656 C 533.121094 332.972656 546.597656 336.132812 552.96875 346.398438 C 559.339844 356.664062 556.191406 370.148438 545.9375 376.519531 Z M 573.953125 338.363281 L 569.476562 331.140625 L 560.710938 334.179688 C 559.375 332.695312 557.9375 331.332031 556.40625 330.121094 L 558.867188 321.1875 L 551.382812 317.179688 L 545.3125 324.195312 C 543.433594 323.585938 541.507812 323.136719 539.554688 322.847656 L 537.222656 313.863281 L 528.734375 314.128906 L 526.992188 323.234375 C 525.082031 323.644531 523.1875 324.21875 521.332031 324.957031 L 514.828125 318.34375 L 507.613281 322.824219 L 510.652344 331.59375 C 509.171875 332.929688 507.816406 334.375 506.601562 335.90625 L 497.675781 333.433594 L 493.664062 340.929688 L 500.683594 347.003906 C 500.078125 348.878906 499.625 350.804688 499.335938 352.761719 L 490.359375 355.089844 L 490.632812 363.582031 L 499.730469 365.332031 C 500.136719 367.246094 500.714844 369.136719 501.457031 371 L 494.847656 377.507812 L 499.328125 384.726562 L 508.09375 381.691406 C 509.429688 383.171875 510.863281 384.53125 512.394531 385.742188 L 509.9375 394.679688 L 517.421875 398.695312 L 523.488281 391.675781 C 525.367188 392.28125 527.292969 392.730469 529.242188 393.023438 L 531.578125 402.007812 L 540.066406 401.734375 L 541.808594 392.628906 C 543.722656 392.226562 545.613281 391.648438 547.46875 390.910156 L 553.972656 397.519531 L 561.1875 393.042969 L 558.144531 384.273438 C 559.628906 382.933594 560.988281 381.496094 562.199219 379.960938 L 571.128906 382.433594 L 575.136719 374.945312 L 568.117188 368.867188 C 568.722656 366.984375 569.171875 365.0625 569.460938 363.109375 L 578.441406 360.777344 L 578.167969 352.28125 L 569.070312 350.535156 C 568.660156 348.617188 568.089844 346.726562 567.34375 344.871094 L 573.953125 338.363281 " fill-opacity="1" fill-rule="nonzero"/><path fill="#222222" d="M 662.644531 467.355469 L 618.277344 410.003906 L 560.929688 454.378906 L 662.644531 467.355469 " fill-opacity="1" fill-rule="nonzero"/><path fill="#ffffff" d="M 662.644531 467.355469 L 618.277344 410.003906 L 560.929688 454.378906 L 593.648438 458.550781 C 574.273438 506.058594 527.953125 537.878906 475.296875 537.878906 C 435.835938 537.878906 399.1875 520.070312 374.753906 489.011719 C 369.585938 482.449219 360.082031 481.3125 353.519531 486.476562 C 346.957031 491.644531 345.824219 501.148438 350.984375 507.714844 C 381.195312 546.105469 426.503906 568.125 475.296875 568.125 C 511.363281 568.125 545.332031 556.292969 573.527344 533.910156 C 596.878906 515.367188 614.601562 490.386719 624.457031 462.484375 L 662.644531 467.355469 " fill-opacity="1" fill-rule="nonzero"/><path fill="#222222" d="M 362.839844 484.144531 C 359.671875 484.144531 356.613281 485.199219 354.078125 487.191406 C 347.921875 492.039062 346.851562 500.992188 351.699219 507.15625 C 381.734375 545.324219 426.78125 567.21875 475.296875 567.21875 C 511.160156 567.21875 544.929688 555.457031 572.957031 533.199219 C 596.199219 514.75 613.714844 490.191406 623.601562 462.179688 C 623.746094 461.777344 624.140625 461.527344 624.574219 461.582031 L 660.589844 466.175781 L 618.113281 411.277344 L 563.222656 453.757812 L 593.765625 457.652344 C 594.039062 457.6875 594.289062 457.851562 594.429688 458.09375 C 594.570312 458.339844 594.589844 458.632812 594.484375 458.894531 C 574.6875 507.425781 527.910156 538.785156 475.296875 538.785156 C 435.554688 538.785156 398.652344 520.847656 374.039062 489.574219 C 371.691406 486.589844 368.320312 484.699219 364.550781 484.246094 C 363.980469 484.175781 363.410156 484.144531 362.839844 484.144531 Z M 475.296875 569.03125 C 426.222656 569.03125 380.65625 546.886719 350.273438 508.273438 C 344.8125 501.332031 346.015625 491.230469 352.960938 485.765625 C 356.324219 483.117188 360.515625 481.9375 364.765625 482.445312 C 369.023438 482.953125 372.816406 485.082031 375.46875 488.449219 C 399.730469 519.285156 436.117188 536.972656 475.296875 536.972656 C 526.773438 536.972656 572.589844 506.523438 592.355469 459.304688 L 560.816406 455.28125 C 560.457031 455.234375 560.152344 454.96875 560.058594 454.621094 C 559.960938 454.265625 560.085938 453.886719 560.375 453.660156 L 617.722656 409.285156 C 618.117188 408.980469 618.683594 409.054688 618.992188 409.445312 L 663.359375 466.800781 C 663.585938 467.085938 663.613281 467.484375 663.433594 467.804688 C 663.25 468.125 662.902344 468.300781 662.53125 468.253906 L 625.0625 463.472656 C 615.023438 491.519531 597.40625 516.109375 574.089844 534.617188 C 545.734375 557.128906 511.570312 569.03125 475.296875 569.03125 " fill-opacity="1" fill-rule="nonzero"/><path fill="#222222" d="M 312.949219 351.058594 L 357.320312 408.40625 L 414.660156 364.03125 Z M 312.949219 351.058594 " fill-opacity="1" fill-rule="nonzero"/><path fill="#222222" d="M 312.949219 351.058594 L 357.320312 408.40625 L 414.660156 364.03125 Z M 312.949219 351.058594 " fill-opacity="1" fill-rule="nonzero"/><path fill="#ffffff" d="M 630.46875 318.652344 C 600.910156 275.84375 552.246094 250.289062 500.300781 250.289062 C 464.230469 250.289062 430.261719 262.121094 402.070312 284.5 C 378.714844 303.050781 360.992188 328.027344 351.140625 355.929688 L 312.945312 351.0625 L 357.320312 408.410156 L 414.664062 364.03125 L 381.945312 359.859375 C 401.320312 312.355469 447.640625 280.535156 500.300781 280.535156 C 542.3125 280.535156 581.671875 301.207031 605.585938 335.835938 C 610.328125 342.707031 619.746094 344.429688 626.621094 339.683594 C 633.492188 334.941406 635.214844 325.523438 630.46875 318.652344 " fill-opacity="1" fill-rule="nonzero"/><path fill="#222222" d="M 315.007812 352.234375 L 357.484375 407.136719 L 412.378906 364.652344 L 381.832031 360.757812 C 381.554688 360.722656 381.308594 360.558594 381.164062 360.316406 C 381.023438 360.070312 381.003906 359.773438 381.109375 359.515625 C 400.902344 310.980469 447.6875 279.625 500.300781 279.625 C 542.613281 279.625 582.25 300.445312 606.339844 335.320312 C 608.492188 338.445312 611.738281 340.539062 615.472656 341.222656 C 619.207031 341.910156 622.984375 341.097656 626.105469 338.9375 C 632.558594 334.484375 634.179688 325.609375 629.726562 319.164062 C 600.335938 276.601562 551.953125 251.195312 500.300781 251.195312 C 464.4375 251.195312 430.664062 262.957031 402.636719 285.214844 C 379.394531 303.664062 361.882812 328.222656 351.996094 356.230469 C 351.851562 356.632812 351.449219 356.878906 351.023438 356.828125 Z M 357.324219 409.3125 C 357.28125 409.3125 357.246094 409.3125 357.203125 409.308594 C 356.96875 409.277344 356.75 409.152344 356.605469 408.960938 L 312.234375 351.609375 C 312.011719 351.324219 311.984375 350.925781 312.164062 350.605469 C 312.347656 350.289062 312.691406 350.109375 313.066406 350.160156 L 350.53125 354.9375 C 360.574219 326.890625 378.191406 302.308594 401.507812 283.792969 C 429.863281 261.28125 464.027344 249.378906 500.300781 249.378906 C 552.546875 249.378906 601.492188 275.082031 631.222656 318.132812 C 636.242188 325.402344 634.410156 335.40625 627.140625 340.433594 C 623.613281 342.859375 619.359375 343.78125 615.144531 343.007812 C 610.933594 342.234375 607.277344 339.875 604.84375 336.351562 C 581.101562 301.96875 542.019531 281.441406 500.300781 281.441406 C 448.824219 281.441406 403.003906 311.882812 383.242188 359.109375 L 414.777344 363.128906 C 415.144531 363.175781 415.445312 363.441406 415.535156 363.796875 C 415.632812 364.144531 415.507812 364.523438 415.21875 364.75 L 357.878906 409.125 C 357.714844 409.25 357.515625 409.3125 357.324219 409.3125 " fill-opacity="1" fill-rule="nonzero"/><path fill="#ffffff" d="M 237.28125 395.230469 C 237.285156 394.027344 170.097656 383.414062 165.761719 371.132812 C 159.296875 352.808594 151.230469 330.78125 151.230469 330.78125 L 134.453125 341.378906 L 145.253906 394.101562 L 237.28125 395.230469 " fill-opacity="1" fill-rule="nonzero"/><path fill="#222222" d="M 145.996094 393.199219 L 229.609375 394.230469 C 228.730469 394.039062 227.804688 393.84375 226.855469 393.644531 C 196.46875 387.167969 167.929688 379.996094 164.90625 371.4375 C 159.316406 355.589844 152.449219 336.757812 150.765625 332.144531 L 135.46875 341.808594 Z M 237.28125 396.136719 C 237.277344 396.136719 237.273438 396.136719 237.269531 396.136719 L 145.246094 395.007812 C 144.820312 394.996094 144.453125 394.699219 144.367188 394.28125 L 133.566406 341.558594 C 133.492188 341.191406 133.652344 340.8125 133.972656 340.609375 L 150.75 330.015625 C 150.980469 329.867188 151.269531 329.832031 151.523438 329.921875 C 151.785156 330.007812 151.988281 330.210938 152.085938 330.464844 C 152.164062 330.6875 160.222656 352.714844 166.617188 370.835938 C 169.71875 379.613281 210.023438 388.199219 227.234375 391.871094 C 238.191406 394.203125 238.191406 394.203125 238.1875 395.234375 C 238.1875 395.480469 238.089844 395.707031 237.917969 395.875 C 237.746094 396.046875 237.515625 396.136719 237.28125 396.136719 " fill-opacity="1" fill-rule="nonzero"/><path fill="#ffffff" d="M 158.617188 435.167969 L 142.410156 341.820312 L 157.898438 332.945312 C 157.898438 332.945312 138.921875 280.378906 117.644531 275.328125 L 117.644531 275.339844 C 116.867188 275.011719 116.078125 274.703125 115.265625 274.445312 C 86.085938 265.152344 61.675781 268.902344 45.652344 274.132812 C 33.453125 278.113281 25.445312 289.796875 26.042969 302.617188 L 24.390625 443.308594 C 24.773438 451.554688 36.15625 459.566406 43.714844 462.875 C 52.820312 466.863281 69.140625 465.5625 91.601562 465.5625 C 112.546875 465.5625 127.34375 462.050781 137.128906 458.34375 C 146.496094 454.792969 159.796875 445.117188 158.617188 435.167969 " fill-opacity="1" fill-rule="nonzero"/><path fill="#222222" d="M 79.59375 269.691406 C 66.007812 269.691406 54.539062 272.1875 45.9375 274.988281 C 34.183594 278.828125 26.375 290.167969 26.949219 302.574219 L 25.296875 443.316406 C 25.660156 451.113281 37.011719 458.949219 44.078125 462.042969 C 51.09375 465.117188 62.484375 464.972656 78.257812 464.765625 C 82.496094 464.710938 86.875 464.65625 91.601562 464.65625 C 109.0625 464.65625 124.273438 462.246094 136.808594 457.496094 C 145.886719 454.054688 158.800781 444.625 157.71875 435.300781 L 141.511719 341.972656 C 141.449219 341.597656 141.625 341.21875 141.957031 341.03125 L 156.777344 332.539062 C 154.417969 326.277344 136.738281 280.964844 117.554688 276.238281 C 117.464844 276.230469 117.378906 276.207031 117.292969 276.171875 C 116.433594 275.8125 115.699219 275.535156 114.988281 275.308594 C 102.132812 271.214844 90.21875 269.691406 79.59375 269.691406 Z M 67.824219 466.671875 C 57.125 466.671875 49.007812 466.1875 43.351562 463.707031 C 35.585938 460.304688 23.890625 452.078125 23.488281 443.351562 L 25.136719 302.605469 C 24.523438 289.441406 32.847656 277.355469 45.371094 273.269531 C 60.960938 268.183594 85.789062 264.105469 115.539062 273.582031 C 116.269531 273.816406 117.015625 274.09375 117.878906 274.453125 C 139.375 279.59375 157.96875 330.472656 158.75 332.636719 C 158.898438 333.050781 158.726562 333.511719 158.347656 333.734375 L 143.410156 342.289062 L 159.511719 435.015625 C 159.515625 435.03125 159.515625 435.046875 159.519531 435.0625 C 160.75 445.46875 147.355469 455.441406 137.449219 459.191406 C 124.710938 464.023438 109.285156 466.46875 91.601562 466.46875 C 86.886719 466.46875 82.511719 466.523438 78.28125 466.578125 C 74.554688 466.628906 71.070312 466.671875 67.824219 466.671875 " fill-opacity="1" fill-rule="nonzero"/><path fill="#ffffff" d="M 1.40625 358.804688 C 1.40625 358.804688 3.484375 323.632812 6.523438 310.046875 C 12.914062 281.457031 40.179688 277.132812 40.179688 277.132812 L 43.488281 353.917969 L 1.40625 358.804688 " fill-opacity="1" fill-rule="nonzero"/><path fill="#222222" d="M 1.40625 359.710938 C 1.175781 359.710938 0.949219 359.621094 0.78125 359.460938 C 0.585938 359.28125 0.484375 359.015625 0.5 358.75 C 0.519531 358.398438 2.617188 323.351562 5.640625 309.847656 C 12.089844 280.992188 39.757812 276.28125 40.039062 276.238281 C 40.535156 276.160156 40.996094 276.496094 41.074219 276.992188 C 41.152344 277.484375 40.816406 277.949219 40.324219 278.027344 C 40.054688 278.070312 13.585938 282.617188 7.40625 310.242188 C 4.71875 322.273438 2.757812 351.761719 2.375 357.777344 L 42.546875 353.113281 L 41.925781 338.675781 C 41.902344 338.175781 42.292969 337.75 42.792969 337.730469 C 43.28125 337.722656 43.714844 338.09375 43.738281 338.597656 L 44.394531 353.878906 C 44.414062 354.351562 44.0625 354.761719 43.59375 354.816406 L 1.507812 359.707031 C 1.472656 359.710938 1.4375 359.710938 1.40625 359.710938 " fill-opacity="1" fill-rule="nonzero"/><path fill="#222222" d="M 80.386719 285.148438 C 61.367188 285.148438 43.582031 279.859375 43.347656 279.785156 C 42.867188 279.644531 42.597656 279.136719 42.742188 278.660156 C 42.886719 278.179688 43.390625 277.90625 43.871094 278.050781 C 44.175781 278.144531 74.566406 287.179688 98.007812 281.429688 C 98.492188 281.3125 98.984375 281.605469 99.105469 282.09375 C 99.222656 282.582031 98.925781 283.074219 98.441406 283.191406 C 92.652344 284.609375 86.453125 285.148438 80.386719 285.148438 " fill-opacity="1" fill-rule="nonzero"/><path fill="#ffffff" d="M 6.71875 357.339844 C 6.71875 357.339844 4.671875 384.160156 15.296875 402.171875 C 27.980469 423.675781 91.988281 394.710938 91.988281 394.710938 L 99.433594 390.492188 C 104.46875 387.644531 110.46875 387.03125 115.976562 388.8125 L 128 392.6875 C 128 392.6875 118.070312 380.78125 109.625 376.230469 C 105.664062 374.09375 100.53125 376.109375 96.195312 378.859375 C 88.734375 383.582031 79.960938 385.800781 71.132812 385.535156 L 45.671875 384.78125 C 41.398438 384.652344 37.894531 381.34375 37.523438 377.085938 L 35.585938 354.898438 L 6.71875 357.339844 " fill-opacity="1" fill-rule="nonzero"/><path fill="#222222" d="M 7.578125 358.175781 C 7.355469 362.671875 6.714844 385.84375 16.074219 401.707031 C 19.320312 407.207031 26.195312 409.226562 34.527344 409.226562 C 57.347656 409.230469 91.152344 394.09375 91.613281 393.882812 L 98.984375 389.707031 C 104.230469 386.738281 110.523438 386.09375 116.257812 387.945312 L 125.144531 390.8125 C 121.78125 387.109375 115.070312 380.195312 109.195312 377.023438 C 105.441406 375.003906 100.320312 377.320312 96.679688 379.625 C 89.203125 384.359375 80.359375 386.726562 71.109375 386.445312 L 45.644531 385.6875 C 40.910156 385.542969 37.03125 381.878906 36.621094 377.164062 L 34.761719 355.875 Z M 34.691406 411.03125 C 25.679688 411.03125 18.152344 408.800781 14.511719 402.632812 C 3.867188 384.585938 5.730469 358.378906 5.8125 357.269531 C 5.847656 356.828125 6.199219 356.476562 6.640625 356.433594 L 35.511719 353.992188 C 36.007812 353.949219 36.445312 354.320312 36.492188 354.820312 L 38.425781 377.007812 C 38.757812 380.808594 41.886719 383.757812 45.699219 383.875 L 71.160156 384.628906 C 80.070312 384.890625 88.539062 382.632812 95.710938 378.09375 C 101.59375 374.363281 106.417969 373.46875 110.054688 375.429688 C 118.558594 380.011719 128.289062 391.617188 128.695312 392.109375 C 128.957031 392.421875 128.976562 392.863281 128.753906 393.199219 C 128.523438 393.53125 128.101562 393.671875 127.722656 393.550781 L 115.699219 389.671875 C 110.449219 387.980469 104.683594 388.566406 99.878906 391.28125 L 92.4375 395.5 C 90.484375 396.386719 57.75 411.03125 34.691406 411.03125 " fill-opacity="1" fill-rule="nonzero"/><path fill="#ffffff" d="M 104.941406 652.3125 L 91.066406 693.714844 C 91.066406 693.714844 106.179688 692.429688 107.625 692.710938 C 109.070312 692.996094 126.75 654.949219 126.75 654.949219 L 104.941406 652.3125 " fill-opacity="1" fill-rule="nonzero"/><path fill="#222222" d="M 107.796875 691.820312 Z M 107.796875 691.820312 Z M 105.570312 653.300781 L 92.363281 692.699219 C 96.214844 692.378906 105.046875 691.679688 107.371094 691.78125 C 109.351562 689.441406 119.15625 669.09375 125.398438 655.699219 Z M 91.066406 694.628906 C 90.789062 694.628906 90.527344 694.496094 90.355469 694.28125 C 90.164062 694.039062 90.109375 693.722656 90.207031 693.429688 L 104.082031 652.023438 C 104.21875 651.613281 104.613281 651.355469 105.050781 651.410156 L 126.859375 654.046875 C 127.148438 654.082031 127.402344 654.253906 127.542969 654.507812 C 127.683594 654.761719 127.695312 655.066406 127.574219 655.332031 C 127.527344 655.425781 123.097656 664.957031 118.542969 674.332031 C 109.042969 693.90625 108.414062 693.789062 107.449219 693.601562 C 106.542969 693.433594 98.371094 694.003906 91.144531 694.625 C 91.117188 694.625 91.089844 694.628906 91.066406 694.628906 " fill-opacity="1" fill-rule="nonzero"/><path fill="#ffffff" d="M 94.242188 684.617188 C 94.242188 684.617188 115.113281 676.0625 118.972656 686.800781 C 123.878906 700.457031 131.554688 721.296875 131.554688 721.296875 C 132.855469 724.925781 130.355469 728.792969 126.515625 729.101562 C 118.886719 729.714844 107.515625 730.210938 102.214844 728.351562 C 93.847656 725.414062 79.96875 698.933594 79.96875 698.933594 L 84.246094 676.402344 C 84.246094 676.402344 91.816406 675.335938 94.242188 684.617188 " fill-opacity="1" fill-rule="nonzero"/><path fill="#222222" d="M 80.917969 698.789062 C 82.421875 701.609375 95.023438 724.867188 102.515625 727.496094 C 106.441406 728.875 114.9375 729.125 126.441406 728.195312 C 127.988281 728.070312 129.363281 727.253906 130.203125 725.953125 C 131.042969 724.648438 131.222656 723.0625 130.699219 721.605469 C 130.625 721.402344 122.972656 700.613281 118.117188 687.109375 C 117.472656 685.3125 116.289062 684.054688 114.5 683.253906 C 107.613281 680.191406 94.714844 685.40625 94.585938 685.457031 C 94.347656 685.558594 94.070312 685.546875 93.839844 685.429688 C 93.605469 685.3125 93.433594 685.101562 93.367188 684.851562 C 91.554688 677.921875 86.75 677.269531 85.007812 677.269531 Z M 114.210938 730.566406 C 109.332031 730.566406 104.792969 730.21875 101.914062 729.207031 C 93.308594 726.1875 79.738281 700.449219 79.164062 699.355469 C 79.070312 699.175781 79.039062 698.964844 79.074219 698.765625 L 83.355469 676.234375 C 83.429688 675.855469 83.734375 675.558594 84.121094 675.503906 C 84.203125 675.496094 91.964844 674.511719 94.835938 683.414062 C 98.0625 682.222656 108.710938 678.695312 115.234375 681.597656 C 117.46875 682.59375 119.015625 684.238281 119.824219 686.496094 C 124.675781 699.992188 132.328125 720.777344 132.40625 720.980469 C 133.125 722.988281 132.875 725.152344 131.726562 726.933594 C 130.578125 728.714844 128.703125 729.835938 126.589844 730.003906 C 122.761719 730.3125 118.363281 730.566406 114.210938 730.566406 " fill-opacity="1" fill-rule="nonzero"/><path fill="#222222" d="M 126.207031 720.984375 L 104.773438 720.984375 C 104.273438 720.984375 103.867188 720.582031 103.867188 720.082031 C 103.867188 719.578125 104.273438 719.171875 104.773438 719.171875 L 126.207031 719.171875 C 126.710938 719.171875 127.113281 719.578125 127.113281 720.082031 C 127.113281 720.582031 126.710938 720.984375 126.207031 720.984375 " fill-opacity="1" fill-rule="nonzero"/><path fill="#ffffff" d="M 65.597656 662.484375 L 70.3125 704.136719 L 89.277344 698.933594 L 87.816406 661.402344 L 65.597656 662.484375 " fill-opacity="1" fill-rule="nonzero"/><path fill="#222222" d="M 66.605469 663.347656 L 71.09375 702.980469 L 88.34375 698.25 L 86.945312 662.359375 Z M 70.3125 705.046875 C 70.132812 705.046875 69.953125 704.992188 69.804688 704.890625 C 69.585938 704.738281 69.441406 704.503906 69.410156 704.238281 L 64.695312 662.585938 C 64.667969 662.339844 64.742188 662.089844 64.90625 661.894531 C 65.070312 661.707031 65.300781 661.59375 65.550781 661.582031 L 87.773438 660.5 C 88.019531 660.492188 88.253906 660.574219 88.429688 660.738281 C 88.609375 660.898438 88.714844 661.128906 88.722656 661.371094 L 90.183594 698.898438 C 90.203125 699.320312 89.925781 699.699219 89.519531 699.808594 L 70.550781 705.011719 C 70.472656 705.035156 70.390625 705.046875 70.3125 705.046875 " fill-opacity="1" fill-rule="nonzero"/><path fill="#ffffff" d="M 68.523438 734.824219 L 98.53125 734.824219 C 102.59375 734.824219 105.710938 731.222656 105.117188 727.207031 C 104.113281 720.425781 100.851562 709.1875 91.066406 693.714844 C 90 692.03125 88.132812 691.007812 86.136719 691.007812 L 77.007812 691.007812 C 75.433594 691.007812 74.117188 692.191406 73.949219 693.761719 L 73.261719 700.34375 L 69.289062 695.097656 C 69.289062 695.097656 62.195312 710.039062 61.867188 728.046875 C 61.796875 731.769531 64.800781 734.824219 68.523438 734.824219 " fill-opacity="1" fill-rule="nonzero"/><g clip-path="url(#4d5ab52e02)"><path fill="#222222" d="M 69.5 696.875 C 67.789062 700.972656 63.035156 713.585938 62.773438 728.0625 C 62.742188 729.617188 63.328125 731.085938 64.417969 732.191406 C 65.507812 733.304688 66.964844 733.917969 68.523438 733.917969 L 98.535156 733.917969 C 100.207031 733.917969 101.796875 733.191406 102.890625 731.925781 C 103.980469 730.660156 104.464844 728.988281 104.21875 727.339844 C 103.238281 720.710938 100.027344 709.582031 90.300781 694.203125 C 89.40625 692.792969 87.808594 691.914062 86.136719 691.914062 L 77.007812 691.914062 C 75.894531 691.914062 74.96875 692.75 74.851562 693.851562 L 74.164062 700.441406 C 74.125 700.808594 73.863281 701.117188 73.503906 701.214844 C 73.148438 701.320312 72.761719 701.1875 72.539062 700.894531 Z M 98.535156 735.730469 L 68.523438 735.730469 C 66.476562 735.730469 64.558594 734.929688 63.121094 733.464844 C 61.691406 732.003906 60.921875 730.074219 60.957031 728.03125 C 61.289062 710.035156 68.398438 694.859375 68.46875 694.707031 C 68.605469 694.421875 68.878906 694.226562 69.195312 694.195312 C 69.507812 694.164062 69.820312 694.296875 70.011719 694.546875 L 72.597656 697.964844 L 73.046875 693.664062 C 73.261719 691.632812 74.964844 690.097656 77.007812 690.097656 L 86.136719 690.097656 C 88.460938 690.097656 90.589844 691.269531 91.832031 693.230469 C 101.730469 708.878906 105.007812 720.273438 106.015625 727.074219 C 106.335938 729.246094 105.699219 731.445312 104.261719 733.109375 C 102.824219 734.773438 100.734375 735.730469 98.535156 735.730469 " fill-opacity="1" fill-rule="nonzero"/></g><path fill="#222222" d="M 102.214844 728.554688 L 66.289062 728.554688 C 65.789062 728.554688 65.382812 728.152344 65.382812 727.648438 C 65.382812 727.148438 65.789062 726.742188 66.289062 726.742188 L 102.214844 726.742188 C 102.714844 726.742188 103.121094 727.148438 103.121094 727.648438 C 103.121094 728.152344 102.714844 728.554688 102.214844 728.554688 " fill-opacity="1" fill-rule="nonzero"/><path fill="#222222" d="M 136.828125 412.339844 C 136.042969 410.417969 134.453125 408.949219 132.46875 408.328125 C 121.5 404.886719 83.238281 395.8125 43.855469 421.074219 C 41.996094 422.269531 40.808594 424.265625 40.652344 426.46875 C 39.226562 446.484375 33.917969 551.121094 67.015625 675.015625 L 89.308594 673.425781 L 93.855469 461.589844 C 93.855469 461.589844 126.878906 539.25 100.027344 662.84375 L 123.214844 667.125 C 123.214844 667.125 157.148438 622.496094 163.226562 554.304688 C 168.601562 493.980469 142.84375 426.992188 136.828125 412.339844 " fill-opacity="1" fill-rule="nonzero"/><path fill="#ffffff" d="M 101.984375 404.8125 C 85.71875 404.8125 65.175781 408.476562 44.34375 421.839844 C 42.734375 422.871094 41.691406 424.625 41.554688 426.53125 C 40.152344 446.230469 34.84375 550.585938 67.695312 674.058594 L 88.417969 672.578125 L 92.949219 461.570312 C 92.957031 461.144531 93.261719 460.78125 93.683594 460.699219 C 94.105469 460.617188 94.523438 460.84375 94.6875 461.238281 C 94.773438 461.429688 103.050781 481.160156 107.910156 515.742188 C 112.367188 547.472656 114.789062 598.570312 101.109375 662.121094 L 122.820312 666.132812 C 126.328125 661.289062 156.664062 617.769531 162.324219 554.222656 C 167.714844 493.703125 141.332031 425.703125 135.992188 412.683594 C 135.300781 411.003906 133.917969 409.730469 132.199219 409.191406 C 127.191406 407.621094 116.222656 404.8125 101.984375 404.8125 Z M 67.015625 675.921875 C 66.605469 675.921875 66.246094 675.644531 66.136719 675.25 C 32.996094 551.179688 38.339844 446.191406 39.746094 426.402344 C 39.921875 423.929688 41.277344 421.652344 43.367188 420.308594 C 83.089844 394.828125 121.816406 404.035156 132.742188 407.460938 C 134.976562 408.164062 136.773438 409.816406 137.667969 411.996094 C 143.039062 425.082031 169.5625 493.445312 164.128906 554.386719 C 158.101562 622.058594 124.277344 667.222656 123.9375 667.671875 C 123.730469 667.945312 123.386719 668.078125 123.050781 668.015625 L 99.863281 663.734375 C 99.617188 663.6875 99.40625 663.550781 99.269531 663.347656 C 99.136719 663.140625 99.085938 662.890625 99.140625 662.648438 C 112.976562 598.976562 110.574219 547.796875 106.125 516.078125 C 102.613281 491.0625 97.316406 473.890625 94.660156 466.320312 L 90.214844 673.445312 C 90.207031 673.914062 89.839844 674.296875 89.375 674.332031 L 67.078125 675.917969 C 67.058594 675.921875 67.035156 675.921875 67.015625 675.921875 " fill-opacity="1" fill-rule="nonzero"/><path fill="#ffffff" d="M 72.695312 576.589844 C 72.683594 576.589844 72.671875 576.589844 72.65625 576.589844 C 52.027344 575.699219 49.6875 547.578125 49.667969 547.292969 C 49.628906 546.792969 50.003906 546.363281 50.503906 546.320312 C 51.007812 546.28125 51.4375 546.660156 51.476562 547.160156 C 51.496094 547.429688 53.714844 573.953125 72.734375 574.777344 C 73.234375 574.796875 73.621094 575.222656 73.601562 575.722656 C 73.578125 576.207031 73.179688 576.589844 72.695312 576.589844 " fill-opacity="1" fill-rule="nonzero"/><path fill="#ffffff" d="M 95.792969 481.921875 C 95.308594 481.921875 94.902344 481.53125 94.886719 481.039062 L 94.101562 454.539062 C 94.09375 454.238281 94.238281 453.945312 94.488281 453.773438 L 108.386719 444 C 108.796875 443.707031 109.359375 443.808594 109.648438 444.214844 C 109.9375 444.625 109.839844 445.195312 109.429688 445.480469 L 95.929688 454.976562 L 96.703125 480.984375 C 96.714844 481.488281 96.324219 481.90625 95.820312 481.921875 C 95.8125 481.921875 95.804688 481.921875 95.792969 481.921875 " fill-opacity="1" fill-rule="nonzero"/><path fill="#222222" d="M 85.324219 223.878906 C 93.804688 216.585938 95.738281 215.589844 98.207031 211.410156 C 100.21875 208.003906 104.710938 200.394531 101.671875 192.347656 C 99.042969 185.394531 91.78125 181.191406 85.101562 180.835938 C 79.105469 180.511719 74.726562 183.347656 72.410156 184.84375 C 71.398438 185.503906 62.476562 191.457031 60.714844 201.175781 C 60.234375 203.820312 60.59375 205.03125 59.390625 206.6875 C 56.679688 210.410156 51.773438 208.507812 48.378906 211.601562 C 44.109375 215.488281 46.089844 223.757812 46.253906 224.402344 C 48.480469 233.222656 58.011719 239.0625 65.777344 238.25 C 70.261719 237.777344 69.777344 237.246094 85.324219 223.878906 " fill-opacity="1" fill-rule="nonzero"/><path fill="#ffffff" d="M 61.964844 267.503906 C 66.058594 264.789062 68.453125 260.140625 68.339844 255.230469 L 67.871094 234.835938 C 67.734375 234.707031 67.59375 234.582031 67.460938 234.449219 C 67.460938 234.449219 59.292969 234.996094 58.101562 230.835938 C 56.914062 226.675781 62.6875 225.875 62.6875 225.875 C 62.6875 225.875 57.234375 214.398438 71.34375 214.53125 C 75.132812 214.566406 76.488281 208.285156 82.703125 206.878906 C 82.703125 206.878906 85.78125 206.613281 88.898438 214.683594 L 95.722656 224.785156 L 92.3125 226.65625 C 93.152344 230.496094 93.515625 234.734375 93 239.222656 C 92.847656 240.519531 91.960938 241.605469 90.722656 242.007812 C 89.695312 242.339844 88.3125 242.691406 86.683594 242.882812 L 87.785156 256.53125 C 88.265625 262.507812 89.050781 264.671875 93.957031 268.117188 C 95.992188 269.542969 99.035156 270.746094 101.847656 271.65625 C 103.535156 272.203125 103.332031 274.664062 101.582031 274.9375 C 91.222656 276.550781 71.339844 278.464844 51.332031 273.898438 C 51.332031 273.898438 56.917969 270.84375 61.964844 267.503906 " fill-opacity="1" fill-rule="nonzero"/><path fill="#222222" d="M 61.964844 267.5 L 61.972656 267.5 Z M 53.859375 273.519531 C 73.007812 277.417969 91.75 275.554688 101.4375 274.042969 C 102.007812 273.953125 102.089844 273.46875 102.101562 273.324219 C 102.113281 273.179688 102.109375 272.695312 101.566406 272.519531 C 97.980469 271.359375 95.246094 270.128906 93.4375 268.859375 C 88.308594 265.253906 87.386719 262.886719 86.878906 256.601562 L 85.78125 242.953125 C 85.742188 242.464844 86.09375 242.035156 86.578125 241.980469 C 87.902344 241.828125 89.203125 241.542969 90.441406 241.140625 C 91.339844 240.851562 91.988281 240.0625 92.097656 239.121094 C 92.558594 235.125 92.332031 230.992188 91.429688 226.847656 C 91.34375 226.453125 91.527344 226.050781 91.878906 225.859375 L 94.414062 224.464844 L 88.144531 215.1875 C 88.105469 215.132812 88.078125 215.070312 88.050781 215.003906 C 85.523438 208.46875 83.164062 207.84375 82.789062 207.789062 C 79.832031 208.5 78.054688 210.457031 76.484375 212.1875 C 74.96875 213.859375 73.535156 215.4375 71.378906 215.4375 C 71.277344 215.4375 71.1875 215.433594 71.097656 215.433594 C 67.152344 215.433594 64.542969 216.386719 63.34375 218.257812 C 61.496094 221.140625 63.488281 225.445312 63.507812 225.488281 C 63.632812 225.746094 63.621094 226.050781 63.484375 226.308594 C 63.347656 226.558594 63.101562 226.734375 62.8125 226.777344 C 62.070312 226.878906 59.964844 227.421875 59.171875 228.644531 C 58.820312 229.1875 58.753906 229.820312 58.976562 230.585938 C 59.78125 233.414062 65.328125 233.683594 67.398438 233.542969 C 67.648438 233.53125 67.898438 233.617188 68.082031 233.792969 L 68.488281 234.175781 C 68.671875 234.339844 68.773438 234.570312 68.777344 234.816406 L 69.246094 255.207031 C 69.367188 260.488281 66.832031 265.363281 62.464844 268.257812 C 59.332031 270.332031 55.960938 272.3125 53.859375 273.519531 Z M 78.261719 277.648438 C 69.894531 277.648438 60.523438 276.929688 51.128906 274.78125 C 50.761719 274.699219 50.484375 274.394531 50.433594 274.023438 C 50.378906 273.652344 50.566406 273.28125 50.894531 273.105469 C 50.953125 273.070312 56.507812 270.027344 61.464844 266.746094 C 65.308594 264.199219 67.539062 259.898438 67.429688 255.25 L 66.976562 235.378906 C 64.996094 235.425781 58.421875 235.253906 57.230469 231.082031 C 56.863281 229.800781 57.007812 228.648438 57.65625 227.648438 C 58.570312 226.242188 60.3125 225.546875 61.457031 225.222656 C 60.867188 223.515625 60.050781 220.046875 61.8125 217.285156 C 63.390625 214.808594 66.609375 213.578125 71.355469 213.625 C 71.359375 213.625 71.367188 213.625 71.375 213.625 C 72.730469 213.625 73.796875 212.453125 75.140625 210.96875 C 76.824219 209.113281 78.917969 206.804688 82.503906 205.992188 C 82.546875 205.984375 82.585938 205.976562 82.628906 205.972656 C 83.011719 205.945312 86.449219 205.902344 89.703125 214.257812 L 96.472656 224.273438 C 96.617188 224.484375 96.664062 224.75 96.605469 224.996094 C 96.542969 225.246094 96.382812 225.457031 96.160156 225.578125 L 93.339844 227.125 C 94.167969 231.246094 94.359375 235.347656 93.902344 239.332031 C 93.710938 240.972656 92.570312 242.359375 91 242.871094 C 89.917969 243.21875 88.796875 243.484375 87.65625 243.664062 L 88.6875 256.457031 C 89.15625 262.261719 89.886719 264.148438 94.480469 267.375 C 96.140625 268.539062 98.714844 269.691406 102.128906 270.792969 C 103.289062 271.171875 104.007812 272.242188 103.910156 273.464844 C 103.8125 274.691406 102.933594 275.644531 101.722656 275.832031 C 96.25 276.691406 87.925781 277.648438 78.261719 277.648438 " fill-opacity="1" fill-rule="nonzero"/><path fill="#ffffff" d="M 86.683594 242.882812 C 86.683594 242.882812 77.730469 243.199219 74.175781 238.324219 L 86.683594 242.882812 " fill-opacity="1" fill-rule="nonzero"/><path fill="#222222" d="M 86.304688 243.792969 C 84.433594 243.792969 76.832031 243.5 73.445312 238.859375 C 73.148438 238.453125 73.238281 237.890625 73.640625 237.59375 C 74.046875 237.292969 74.613281 237.386719 74.90625 237.792969 C 78.140625 242.21875 86.5625 241.976562 86.652344 241.976562 C 87.152344 241.964844 87.570312 242.351562 87.589844 242.851562 C 87.605469 243.351562 87.214844 243.769531 86.714844 243.789062 C 86.675781 243.789062 86.53125 243.792969 86.304688 243.792969 " fill-opacity="1" fill-rule="nonzero"/><path fill="#222222" d="M 252.191406 389.921875 L 166.539062 389.921875 L 230.039062 292.25 C 232.019531 289.199219 235.476562 287.347656 239.195312 287.347656 L 308.707031 287.347656 C 313.125 287.347656 315.804688 292.074219 313.449219 295.703125 L 252.191406 389.921875 " fill-opacity="1" fill-rule="nonzero"/><path fill="#ffffff" d="M 270.464844 321.597656 C 267.679688 325.878906 261.695312 329.347656 257.097656 329.347656 C 252.496094 329.347656 251.023438 325.878906 253.804688 321.597656 C 256.589844 317.316406 262.574219 313.84375 267.175781 313.84375 C 271.773438 313.84375 273.246094 317.316406 270.464844 321.597656 " fill-opacity="1" fill-rule="nonzero"/><path fill="#222222" d="M 243.648438 398.074219 L 101.046875 398.074219 C 96.160156 398.074219 92.195312 394.109375 92.195312 389.222656 L 252.503906 389.222656 C 252.503906 394.109375 248.539062 398.074219 243.648438 398.074219 " fill-opacity="1" fill-rule="nonzero"/><path fill="#ffffff" d="M 247.738281 390.914062 L 174.179688 390.914062 C 173.679688 390.914062 173.273438 390.511719 173.273438 390.011719 C 173.273438 389.507812 173.679688 389.101562 174.179688 389.101562 L 247.738281 389.101562 C 248.242188 389.101562 248.648438 389.507812 248.648438 390.011719 C 248.648438 390.511719 248.242188 390.914062 247.738281 390.914062 " fill-opacity="1" fill-rule="nonzero"/><path fill="#222222" d="M 337.878906 722.886719 C 296.582031 722.886719 255.070312 715.234375 214.351562 700.097656 C 213.882812 699.921875 213.644531 699.398438 213.816406 698.929688 C 213.992188 698.457031 214.511719 698.21875 214.984375 698.394531 C 302.894531 731.078125 397.027344 728.023438 473.25 690.011719 C 473.703125 689.792969 474.242188 689.972656 474.46875 690.417969 C 474.691406 690.867188 474.511719 691.414062 474.0625 691.636719 C 435.21875 711.007812 392.566406 721.476562 347.292969 722.753906 C 344.160156 722.84375 341.019531 722.886719 337.878906 722.886719 " fill-opacity="1" fill-rule="nonzero"/><path fill="#222222" d="M 341.03125 704.484375 C 310.890625 704.484375 280.113281 700.0625 250.089844 691.3125 C 249.609375 691.175781 249.332031 690.671875 249.472656 690.191406 C 249.613281 689.710938 250.113281 689.429688 250.597656 689.570312 C 297.125 703.132812 345.460938 706.234375 390.378906 698.542969 C 390.886719 698.460938 391.34375 698.792969 391.425781 699.285156 C 391.511719 699.777344 391.179688 700.246094 390.6875 700.335938 C 374.496094 703.101562 357.859375 704.484375 341.03125 704.484375 " fill-opacity="1" fill-rule="nonzero"/><path fill="#222222" d="M 200.589844 689.847656 C 201.070312 691.59375 201.980469 694.785156 203.09375 698.085938 L 209.5625 691.457031 Z M 202.71875 700.679688 C 202.652344 700.679688 202.585938 700.671875 202.519531 700.65625 C 202.214844 700.589844 201.964844 700.371094 201.859375 700.074219 C 199.941406 694.628906 198.484375 688.988281 198.46875 688.929688 C 198.390625 688.628906 198.46875 688.316406 198.679688 688.085938 C 198.890625 687.859375 199.203125 687.753906 199.503906 687.808594 L 211.566406 689.96875 C 211.898438 690.027344 212.171875 690.265625 212.273438 690.585938 C 212.375 690.902344 212.292969 691.253906 212.058594 691.492188 L 203.367188 700.40625 C 203.195312 700.582031 202.957031 700.679688 202.71875 700.679688 " fill-opacity="1" fill-rule="nonzero"/><path fill="#222222" d="M 118.589844 97.371094 C 118.355469 97.371094 118.125 97.28125 117.945312 97.101562 C 117.59375 96.746094 117.597656 96.171875 117.953125 95.820312 C 152.160156 61.855469 204.777344 37.550781 274.339844 23.601562 C 274.828125 23.5 275.308594 23.816406 275.40625 24.308594 C 275.503906 24.800781 275.1875 25.277344 274.695312 25.375 C 205.488281 39.261719 153.183594 63.394531 119.230469 97.105469 C 119.050781 97.28125 118.820312 97.371094 118.589844 97.371094 " fill-opacity="1" fill-rule="nonzero"/><path fill="#222222" d="M 519.007812 666.398438 C 518.507812 666.398438 518.101562 665.996094 518.101562 665.496094 L 518.101562 658.457031 C 518.101562 657.957031 518.507812 657.550781 519.007812 657.550781 C 519.507812 657.550781 519.914062 657.957031 519.914062 658.457031 L 519.914062 665.496094 C 519.914062 665.996094 519.507812 666.398438 519.007812 666.398438 " fill-opacity="1" fill-rule="nonzero"/><path fill="#222222" d="M 519.007812 682.789062 C 518.507812 682.789062 518.101562 682.382812 518.101562 681.882812 L 518.101562 674.84375 C 518.101562 674.34375 518.507812 673.941406 519.007812 673.941406 C 519.507812 673.941406 519.914062 674.34375 519.914062 674.84375 L 519.914062 681.882812 C 519.914062 682.382812 519.507812 682.789062 519.007812 682.789062 " fill-opacity="1" fill-rule="nonzero"/><path fill="#222222" d="M 514.332031 671.078125 L 507.296875 671.078125 C 506.796875 671.078125 506.390625 670.667969 506.390625 670.167969 C 506.390625 669.667969 506.796875 669.261719 507.296875 669.261719 L 514.332031 669.261719 C 514.832031 669.261719 515.238281 669.667969 515.238281 670.167969 C 515.238281 670.667969 514.832031 671.078125 514.332031 671.078125 " fill-opacity="1" fill-rule="nonzero"/><path fill="#222222" d="M 530.71875 671.078125 L 523.683594 671.078125 C 523.1875 671.078125 522.78125 670.667969 522.78125 670.167969 C 522.78125 669.667969 523.1875 669.261719 523.683594 669.261719 L 530.71875 669.261719 C 531.222656 669.261719 531.628906 669.667969 531.628906 670.167969 C 531.628906 670.667969 531.222656 671.078125 530.71875 671.078125 " fill-opacity="1" fill-rule="nonzero"/><path fill="#222222" d="M 313.917969 38.507812 C 313.417969 38.507812 313.011719 38.101562 313.011719 37.601562 L 313.011719 31.621094 C 313.011719 31.121094 313.417969 30.714844 313.917969 30.714844 C 314.417969 30.714844 314.824219 31.121094 314.824219 31.621094 L 314.824219 37.601562 C 314.824219 38.101562 314.417969 38.507812 313.917969 38.507812 " fill-opacity="1" fill-rule="nonzero"/><path fill="#222222" d="M 313.914062 52.4375 C 313.414062 52.4375 313.007812 52.035156 313.007812 51.535156 L 313.007812 45.554688 C 313.007812 45.050781 313.414062 44.648438 313.914062 44.648438 C 314.414062 44.648438 314.820312 45.050781 314.820312 45.554688 L 314.820312 51.535156 C 314.820312 52.035156 314.414062 52.4375 313.914062 52.4375 " fill-opacity="1" fill-rule="nonzero"/><path fill="#222222" d="M 309.941406 42.484375 L 303.964844 42.484375 C 303.460938 42.484375 303.058594 42.078125 303.058594 41.578125 C 303.058594 41.074219 303.460938 40.671875 303.964844 40.671875 L 309.941406 40.671875 C 310.445312 40.671875 310.847656 41.074219 310.847656 41.578125 C 310.847656 42.078125 310.445312 42.484375 309.941406 42.484375 " fill-opacity="1" fill-rule="nonzero"/><path fill="#222222" d="M 323.867188 42.484375 L 317.890625 42.484375 C 317.390625 42.484375 316.984375 42.078125 316.984375 41.578125 C 316.984375 41.074219 317.390625 40.671875 317.890625 40.671875 L 323.867188 40.671875 C 324.371094 40.671875 324.773438 41.074219 324.773438 41.578125 C 324.773438 42.078125 324.371094 42.484375 323.867188 42.484375 " fill-opacity="1" fill-rule="nonzero"/><g clip-path="url(#0618da80aa)"><path fill="#222222" d="M 340.617188 16.097656 L 340.625 16.097656 Z M 343.367188 16.410156 C 342.558594 16.410156 341.75 16.582031 340.984375 16.925781 C 337.988281 18.273438 336.621094 21.867188 337.945312 24.933594 C 338.589844 26.429688 339.769531 27.574219 341.265625 28.152344 C 342.722656 28.722656 344.320312 28.683594 345.75 28.039062 C 348.75 26.691406 350.117188 23.101562 348.792969 20.035156 C 348.144531 18.535156 346.964844 17.390625 345.472656 16.808594 C 344.792969 16.546875 344.078125 16.410156 343.367188 16.410156 Z M 343.371094 30.367188 C 342.441406 30.367188 341.503906 30.195312 340.609375 29.84375 C 338.65625 29.085938 337.121094 27.597656 336.28125 25.648438 C 334.566406 21.675781 336.34375 17.023438 340.242188 15.269531 C 342.121094 14.425781 344.214844 14.375 346.132812 15.117188 C 348.082031 15.875 349.617188 17.367188 350.457031 19.3125 C 352.171875 23.285156 350.390625 27.945312 346.492188 29.691406 C 345.492188 30.144531 344.433594 30.367188 343.371094 30.367188 " fill-opacity="1" fill-rule="nonzero"/></g><path fill="#222222" d="M 542.285156 633.488281 C 539.605469 634.691406 538.386719 637.902344 539.570312 640.644531 C 540.144531 641.984375 541.199219 643.003906 542.539062 643.527344 C 543.839844 644.035156 545.261719 644 546.546875 643.421875 C 549.222656 642.21875 550.445312 639.003906 549.261719 636.261719 C 548.683594 634.925781 547.628906 633.902344 546.292969 633.382812 C 544.992188 632.878906 543.566406 632.914062 542.285156 633.488281 Z M 544.417969 645.695312 C 543.5625 645.695312 542.703125 645.535156 541.878906 645.214844 C 540.085938 644.519531 538.675781 643.152344 537.902344 641.367188 C 536.332031 637.714844 537.964844 633.441406 541.542969 631.832031 C 543.269531 631.058594 545.1875 631.003906 546.953125 631.691406 C 548.746094 632.390625 550.160156 633.757812 550.925781 635.546875 C 552.5 639.195312 550.867188 643.46875 547.285156 645.078125 C 546.367188 645.488281 545.394531 645.695312 544.417969 645.695312 " fill-opacity="1" fill-rule="nonzero"/><path fill="#222222" d="M 184.128906 633.914062 C 184.011719 633.914062 183.890625 633.890625 183.773438 633.84375 C 180.46875 632.449219 177.121094 630.96875 173.832031 629.449219 C 173.375 629.238281 173.179688 628.699219 173.390625 628.242188 C 173.597656 627.789062 174.136719 627.589844 174.59375 627.800781 C 177.863281 629.316406 181.191406 630.785156 184.480469 632.171875 C 184.941406 632.367188 185.160156 632.898438 184.964844 633.359375 C 184.820312 633.707031 184.480469 633.914062 184.128906 633.914062 Z M 204.46875 641.640625 C 204.375 641.640625 204.277344 641.625 204.179688 641.59375 C 200.769531 640.441406 197.316406 639.199219 193.90625 637.902344 C 193.4375 637.722656 193.203125 637.199219 193.382812 636.730469 C 193.558594 636.261719 194.082031 636.03125 194.550781 636.207031 C 197.9375 637.492188 201.375 638.730469 204.761719 639.875 C 205.238281 640.039062 205.488281 640.550781 205.328125 641.027344 C 205.199219 641.40625 204.847656 641.640625 204.46875 641.640625 Z M 225.328125 647.84375 C 225.253906 647.84375 225.175781 647.835938 225.101562 647.816406 C 221.605469 646.921875 218.066406 645.941406 214.582031 644.90625 C 214.101562 644.757812 213.828125 644.253906 213.972656 643.773438 C 214.113281 643.296875 214.617188 643.019531 215.097656 643.164062 C 218.5625 644.195312 222.078125 645.167969 225.550781 646.058594 C 226.039062 646.1875 226.328125 646.679688 226.207031 647.160156 C 226.097656 647.574219 225.730469 647.84375 225.328125 647.84375 Z M 344.007812 651.6875 C 343.582031 651.6875 343.199219 651.382812 343.117188 650.945312 C 343.027344 650.453125 343.347656 649.980469 343.84375 649.890625 C 347.371094 649.226562 350.945312 648.492188 354.46875 647.695312 C 354.957031 647.582031 355.441406 647.886719 355.550781 648.375 C 355.664062 648.863281 355.359375 649.355469 354.871094 649.464844 C 351.324219 650.261719 347.726562 651.007812 344.175781 651.671875 C 344.121094 651.683594 344.0625 651.6875 344.007812 651.6875 Z M 246.597656 652.429688 C 246.546875 652.429688 246.492188 652.421875 246.441406 652.410156 C 242.882812 651.792969 239.277344 651.085938 235.722656 650.324219 C 235.234375 650.21875 234.925781 649.734375 235.027344 649.246094 C 235.136719 648.757812 235.613281 648.445312 236.109375 648.550781 C 239.636719 649.3125 243.21875 650.007812 246.753906 650.625 C 247.246094 650.714844 247.574219 651.183594 247.488281 651.675781 C 247.414062 652.117188 247.027344 652.429688 246.597656 652.429688 Z M 322.476562 654.867188 C 322.019531 654.867188 321.632812 654.523438 321.582031 654.058594 C 321.523438 653.5625 321.882812 653.113281 322.382812 653.058594 C 325.945312 652.675781 329.566406 652.210938 333.144531 651.683594 C 333.640625 651.605469 334.097656 651.949219 334.171875 652.445312 C 334.246094 652.9375 333.902344 653.402344 333.410156 653.476562 C 329.808594 654.007812 326.164062 654.472656 322.578125 654.863281 C 322.546875 654.867188 322.511719 654.867188 322.476562 654.867188 Z M 268.164062 655.308594 C 268.132812 655.308594 268.105469 655.308594 268.078125 655.304688 C 264.476562 654.96875 260.824219 654.554688 257.230469 654.074219 C 256.734375 654.007812 256.382812 653.554688 256.449219 653.058594 C 256.515625 652.5625 256.976562 652.214844 257.46875 652.277344 C 261.042969 652.753906 264.667969 653.164062 268.246094 653.5 C 268.746094 653.546875 269.109375 653.988281 269.066406 654.484375 C 269.019531 654.957031 268.625 655.308594 268.164062 655.308594 Z M 300.769531 656.351562 C 300.277344 656.351562 299.878906 655.964844 299.863281 655.472656 C 299.847656 654.972656 300.242188 654.554688 300.742188 654.539062 C 304.335938 654.4375 307.976562 654.257812 311.578125 654.015625 C 312.105469 653.984375 312.511719 654.359375 312.542969 654.859375 C 312.578125 655.359375 312.199219 655.789062 311.699219 655.824219 C 308.078125 656.074219 304.410156 656.25 300.796875 656.351562 C 300.785156 656.351562 300.777344 656.351562 300.769531 656.351562 Z M 289.890625 656.441406 C 289.886719 656.441406 289.882812 656.441406 289.878906 656.441406 C 286.261719 656.402344 282.59375 656.285156 278.96875 656.097656 C 278.46875 656.066406 278.082031 655.644531 278.109375 655.140625 C 278.132812 654.640625 278.558594 654.246094 279.0625 654.28125 C 282.660156 654.472656 286.308594 654.585938 289.898438 654.628906 C 290.402344 654.636719 290.800781 655.046875 290.796875 655.546875 C 290.789062 656.046875 290.386719 656.441406 289.890625 656.441406 " fill-opacity="1" fill-rule="nonzero"/><path fill="#222222" d="M 233.566406 105.605469 C 233.097656 105.605469 232.699219 105.242188 232.660156 104.769531 C 232.621094 104.273438 232.992188 103.832031 233.492188 103.792969 C 235.800781 103.601562 238.128906 103.507812 240.410156 103.507812 C 240.910156 103.507812 241.316406 103.917969 241.316406 104.414062 C 241.316406 104.914062 240.910156 105.324219 240.410156 105.324219 C 238.179688 105.324219 235.898438 105.417969 233.640625 105.601562 C 233.613281 105.605469 233.589844 105.605469 233.566406 105.605469 Z M 212.285156 109.925781 C 211.902344 109.925781 211.546875 109.683594 211.421875 109.300781 C 211.269531 108.820312 211.53125 108.308594 212.007812 108.15625 C 215.535156 107.015625 219.105469 106.074219 222.621094 105.355469 C 223.121094 105.253906 223.59375 105.570312 223.691406 106.058594 C 223.792969 106.550781 223.476562 107.03125 222.988281 107.132812 C 219.535156 107.839844 216.027344 108.765625 212.5625 109.882812 C 212.472656 109.914062 212.378906 109.925781 212.285156 109.925781 Z M 192.359375 118.597656 C 192.042969 118.597656 191.730469 118.425781 191.566406 118.128906 C 191.324219 117.6875 191.484375 117.140625 191.921875 116.894531 C 195.15625 115.117188 198.460938 113.484375 201.753906 112.046875 C 202.214844 111.851562 202.746094 112.054688 202.949219 112.515625 C 203.148438 112.976562 202.9375 113.507812 202.480469 113.710938 C 199.238281 115.128906 195.980469 116.734375 192.796875 118.484375 C 192.660156 118.5625 192.507812 118.597656 192.359375 118.597656 Z M 174.246094 130.632812 C 173.976562 130.632812 173.710938 130.515625 173.53125 130.285156 C 173.222656 129.890625 173.289062 129.324219 173.683594 129.015625 C 176.566406 126.746094 179.550781 124.585938 182.554688 122.582031 C 182.972656 122.304688 183.535156 122.417969 183.8125 122.835938 C 184.089844 123.25 183.976562 123.816406 183.5625 124.09375 C 180.59375 126.066406 177.648438 128.203125 174.808594 130.441406 C 174.640625 130.570312 174.441406 130.632812 174.246094 130.632812 Z M 158.214844 145.335938 C 157.992188 145.335938 157.769531 145.257812 157.59375 145.089844 C 157.230469 144.75 157.210938 144.171875 157.550781 143.808594 C 160.046875 141.152344 162.667969 138.558594 165.339844 136.109375 C 165.707031 135.769531 166.28125 135.792969 166.621094 136.164062 C 166.957031 136.535156 166.9375 137.105469 166.566406 137.445312 C 163.925781 139.867188 161.339844 142.429688 158.875 145.050781 C 158.695312 145.242188 158.457031 145.335938 158.214844 145.335938 Z M 144.558594 162.265625 C 144.382812 162.265625 144.203125 162.214844 144.046875 162.105469 C 143.632812 161.820312 143.527344 161.257812 143.8125 160.84375 C 145.859375 157.867188 148.0625 154.914062 150.359375 152.070312 C 150.671875 151.679688 151.246094 151.617188 151.636719 151.933594 C 152.023438 152.246094 152.085938 152.820312 151.769531 153.207031 C 149.503906 156.015625 147.328125 158.933594 145.308594 161.871094 C 145.132812 162.128906 144.847656 162.265625 144.558594 162.265625 Z M 133.757812 181.136719 C 133.628906 181.136719 133.5 181.109375 133.378906 181.050781 C 132.921875 180.839844 132.722656 180.304688 132.933594 179.847656 C 134.4375 176.59375 136.136719 173.320312 137.972656 170.113281 C 138.222656 169.683594 138.777344 169.527344 139.210938 169.78125 C 139.648438 170.03125 139.796875 170.582031 139.546875 171.019531 C 137.734375 174.175781 136.0625 177.40625 134.582031 180.613281 C 134.425781 180.945312 134.097656 181.136719 133.757812 181.136719 Z M 126.648438 201.667969 C 126.582031 201.667969 126.515625 201.664062 126.445312 201.648438 C 125.957031 201.539062 125.652344 201.050781 125.765625 200.5625 C 126.558594 197.085938 127.582031 193.539062 128.8125 190.011719 C 128.976562 189.542969 129.492188 189.289062 129.964844 189.453125 C 130.4375 189.625 130.691406 190.140625 130.523438 190.613281 C 129.316406 194.074219 128.308594 197.558594 127.53125 200.964844 C 127.4375 201.386719 127.0625 201.667969 126.648438 201.667969 " fill-opacity="1" fill-rule="nonzero"/></svg>